<!-- Danny Mulligan 2022-07-23 -->

<svg
    id="Layer_1"
    width="8.5in"
    height="11in"
    xmlns="http://www.w3.org/2000/svg">

  <defs>
  </defs>


<!-- ====================================================================== -->
<!-- ====================================================================== -->
<!-- Alignment marks -->

    <g id="alignment_filled" transform="translate(-250,-500)">
        <line x1="100" y1="0" x2="-100" y2="0" fill="none" stroke="black" stroke-width="2.0"/>
        <line x1="0" y1="100" x2="0" y2="-100" fill="none" stroke="black" stroke-width="2.0"/>
        <circle cx="0" cy="0" r="80" fill="none" stroke="black" stroke-width="2.0"/>
        <path d="M 0,0 L -80,0 A 80,80 90 0 0 0,80 L 0,0" fill="black" stroke="none"/>
        <path d="M 0,0 L 80,0 A 80,80 90 0 0 0,-80 L 0,0" fill="black" stroke="none"/>
    </g>

    <g id="alignment_empty" transform="translate(-500,-500)">
        <line x1="100" y1="0" x2="-100" y2="0" fill="none" stroke="black" stroke-width="2.0"/>
        <line x1="0" y1="100" x2="0" y2="-100" fill="none" stroke="black" stroke-width="2.0"/>
        <path d="
            M   0, 70  L  10, 70  M   0, 60  L  10, 60  M   0, 50  L  10, 50  M   0, 40  L  10, 40  M   0, 30  L  10, 30  M   0, 20  L  10, 20  M   0, 10  L  10, 10
            M   0,-10  L -10,-10  M   0,-20  L -10,-20  M   0,-30  L -10,-30  M   0,-40  L -10,-40  M   0,-50  L -10,-50  M   0,-60  L -10,-60  M   0,-70  L -10,-70
            M  70,  0  L  70,-10  M  60,  0  L  60,-10  M  50,  0  L  50,-10  M  40,  0  L  40,-10  M  30,  0  L  30,-10  M  20,  0  L  20,-10  M  10,  0  L  10,-10
            M -10,  0  L -10, 10  M -20,  0  L -20, 10  M -30,  0  L -30, 10  M -40,  0  L -40, 10  M -50,  0  L -50, 10  M -60,  0  L -60, 10  M -70,  0  L -70, 10
            " fill="none" stroke="black"/>
        <circle cx="0" cy="0" r="80" fill="none" stroke="black" stroke-width="2.0"/>
    </g>


<!-- ====================================================================== -->
<!-- ====================================================================== -->
<!-- Outline for the lock holder -->

    <g id="profile_outline" transform="translate(0,0)">
        <circle cx="0" cy="0" r="1000" fill="none" stroke="black" stroke-width="2.0"/>
        <circle cx="0" cy="-2750" r="80" fill="none" stroke="black" stroke-width="2.0"/>
        <path d="
            M 1300,1100  A 200,200 90 0 1 1100,1300
            L -1100,1300  A 200,200 90 0 1 -1300,1100
            L -1300,-2900  A 200,200 90 0 1 -1100,-3100
            L 1100,-3100  A 200,200 90 0 1 1300,-2900
            L 1300,1100" fill="none" stroke="black" stroke-width="2.0"/>
        <path d="M 1100,-1200 L -1100,-1200 L -1100,-2620 L 1100,-2620 Z" fill="none" stroke="black" stroke-width="2.0"/>
        <path d="M -1100,-2620 L -1100,-2900 L 1100,-2900 L 1100,-2620 Z" fill="none" stroke="black" stroke-width="2.0"/>

        <g id="alignment_SE" transform="translate(1400,1400)">
            <line x1="100" y1="0" x2="-100" y2="0" fill="none" stroke="black" stroke-width="2.0"/>
            <line x1="0" y1="100" x2="0" y2="-100" fill="none" stroke="black" stroke-width="2.0"/>
            <line x1="-80" y1="-80" x2="-20" y2="-20" fill="none" stroke="black" stroke-width="2.0"/>
            <line x1="-20" y1="-60" x2="-20" y2="-20" fill="none" stroke="black" stroke-width="2.0"/>
            <line x1="-60" y1="-20" x2="-20" y2="-20" fill="none" stroke="black" stroke-width="2.0"/>
            <circle cx="0" cy="0" r="80" fill="none" stroke="black" stroke-width="2.0"/>
        </g>

        <g id="alignment_SW" transform="translate(-1400,1400)">
            <line x1="100" y1="0" x2="-100" y2="0" fill="none" stroke="black" stroke-width="2.0"/>
            <line x1="0" y1="100" x2="0" y2="-100" fill="none" stroke="black" stroke-width="2.0"/>
            <line x1="80" y1="-80" x2="20" y2="-20" fill="none" stroke="black" stroke-width="2.0"/>
            <line x1="20" y1="-60" x2="20" y2="-20" fill="none" stroke="black" stroke-width="2.0"/>
            <line x1="60" y1="-20" x2="20" y2="-20" fill="none" stroke="black" stroke-width="2.0"/>
            <circle cx="0" cy="0" r="80" fill="none" stroke="black" stroke-width="2.0"/>
        </g>

        <g id="alignment_NE" transform="translate(1400,-3200)">
            <line x1="100" y1="0" x2="-100" y2="0" fill="none" stroke="black" stroke-width="2.0"/>
            <line x1="0" y1="100" x2="0" y2="-100" fill="none" stroke="black" stroke-width="2.0"/>
            <line x1="-80" y1="80" x2="-20" y2="20" fill="none" stroke="black" stroke-width="2.0"/>
            <line x1="-20" y1="60" x2="-20" y2="20" fill="none" stroke="black" stroke-width="2.0"/>
            <line x1="-60" y1="20" x2="-20" y2="20" fill="none" stroke="black" stroke-width="2.0"/>
            <circle cx="0" cy="0" r="80" fill="none" stroke="black" stroke-width="2.0"/>
        </g>

        <g id="alignment_NW" transform="translate(-1400,-3200)">
            <line x1="100" y1="0" x2="-100" y2="0" fill="none" stroke="black" stroke-width="2.0"/>
            <line x1="0" y1="100" x2="0" y2="-100" fill="none" stroke="black" stroke-width="2.0"/>
            <line x1="80" y1="80" x2="20" y2="20" fill="none" stroke="black" stroke-width="2.0"/>
            <line x1="20" y1="60" x2="20" y2="20" fill="none" stroke="black" stroke-width="2.0"/>
            <line x1="60" y1="20" x2="20" y2="20" fill="none" stroke="black" stroke-width="2.0"/>
            <circle cx="0" cy="0" r="80" fill="none" stroke="black" stroke-width="2.0"/>
        </g>
    </g>


<!-- ====================================================================== -->
<!-- ====================================================================== -->
<!-- Key pins, length 0 to 9 -->

    <g id="key_pin_0" transform="translate(0,0)">
        <path id="key_pin_0_shape" d="M 0,0 L 45,0 Q 50,0 50,5 L 50, 95 Q 50,100 45,105 L 5,145 Q 0,150 -5,145 L -45,105 Q -50,100 -50, 95  L -50,5 Q -50,0 -45,0 L 0,0"
            fill="#ff00f0" stroke="black" stroke-width="2.0"/>
        <text x="0" y="100" text-anchor="middle" font-size="80">0</text>
    </g>

    <g id="key_pin_1" transform="translate(100,0)">
        <path id="key_pin_1_shape" d="M 0,0 L 45,0 Q 50,0 50,5 L 50,105 Q 50,110 45,115 L 5,155 Q 0,160 -5,155 L -45,115 Q -50,110 -50,105  L -50,5 Q -50,0 -45,0 L 0,0"
            fill="#ff10e0" stroke="black" stroke-width="2.0"/>
        <text x="0" y="100" text-anchor="middle" font-size="80">1</text>
    </g>

    <g id="key_pin_2" transform="translate(200,0)">
        <path id="key_pin_2_shape" d="M 0,0 L 45,0 Q 50,0 50,5 L 50,115 Q 50,120 45,125 L 5,165 Q 0,170 -5,165 L -45,125 Q -50,120 -50,115  L -50,5 Q -50,0 -45,0 L 0,0"
            fill="#ff20d0" stroke="black" stroke-width="2.0"/>
        <text x="0" y="100" text-anchor="middle" font-size="80">2</text>
    </g>

    <g id="key_pin_3" transform="translate(300,0)">
        <path id="key_pin_3_shape" d="M 0,0 L 45,0 Q 50,0 50,5 L 50,125 Q 50,130 45,135 L 5,175 Q 0,180 -5,175 L -45,135 Q -50,130 -50,125  L -50,5 Q -50,0 -45,0 L 0,0"
            fill="#ff30c0" stroke="black" stroke-width="2.0"/>
        <text x="0" y="100" text-anchor="middle" font-size="80">3</text>
    </g>

    <g id="key_pin_4" transform="translate(400,0)">
        <path id="key_pin_4_shape" d="M 0,0 L 45,0 Q 50,0 50,5 L 50,135 Q 50,140 45,145 L 5,185 Q 0,190 -5,185 L -45,145 Q -50,140 -50,135  L -50,5 Q -50,0 -45,0 L 0,0"
            fill="#ff40b0" stroke="black" stroke-width="2.0"/>
        <text x="0" y="100" text-anchor="middle" font-size="80">4</text>
    </g>

    <g id="key_pin_5" transform="translate(500,0)">
        <path id="key_pin_5_shape" d="M 0,0 L 45,0 Q 50,0 50,5 L 50,145 Q 50,150 45,155 L 5,195 Q 0,200 -5,195 L -45,155 Q -50,150 -50,145  L -50,5 Q -50,0 -45,0 L 0,0"
            fill="#ff50a0" stroke="black" stroke-width="2.0"/>
        <text x="0" y="100" text-anchor="middle" font-size="80">5</text>
    </g>

    <g id="key_pin_6" transform="translate(600,0)">
        <path id="key_pin_6_shape" d="M 0,0 L 45,0 Q 50,0 50,5 L 50,155 Q 50,160 45,165 L 5,205 Q 0,210 -5,205 L -45,165 Q -50,160 -50,155  L -50,5 Q -50,0 -45,0 L 0,0"
            fill="#ff6090" stroke="black" stroke-width="2.0"/>
        <text x="0" y="100" text-anchor="middle" font-size="80">6</text>
    </g>

    <g id="key_pin_7" transform="translate(700,0)">
        <path id="key_pin_7_shape" d="M 0,0 L 45,0 Q 50,0 50,5 L 50,165 Q 50,170 45,175 L 5,215 Q 0,220 -5,215 L -45,175 Q -50,170 -50,165  L -50,5 Q -50,0 -45,0 L 0,0"
            fill="#ff7080" stroke="black" stroke-width="2.0"/>
        <text x="0" y="100" text-anchor="middle" font-size="80">7</text>
    </g>

    <g id="key_pin_8" transform="translate(800,0)">
        <path id="key_pin_8_shape" d="M 0,0 L 45,0 Q 50,0 50,5 L 50,175 Q 50,180 45,185 L 5,225 Q 0,230 -5,225 L -45,185 Q -50,180 -50,175  L -50,5 Q -50,0 -45,0 L 0,0"
            fill="#ff8070" stroke="black" stroke-width="2.0"/>
        <text x="0" y="100" text-anchor="middle" font-size="80">8</text>
    </g>

    <g id="key_pin_9" transform="translate(900,0)">
        <path id="key_pin_9_shape" d="M 0,0 L 45,0 Q 50,0 50,5 L 50,185 Q 50,190 45,195 L 5,235 Q 0,240 -5,235 L -45,195 Q -50,190 -50,185  L -50,5 Q -50,0 -45,0 L 0,0"
            fill="#ff9060" stroke="black" stroke-width="2.0"/>
        <text x="0" y="100" text-anchor="middle" font-size="80">9</text>
    </g>


<!-- ====================================================================== -->
<!-- ====================================================================== -->
<!-- Springs, length 0 to f (i.e. 0 to 15) -->

    <path id="spring_15" transform="translate(1500,-130)" d="
        M -50,   0.0  0,   0.0  C  80,   0.0     50, -11.5  0, -11.5  C -80, -11.5    -50, -23.0  0, -23.0  C  80, -23.0
           50, -34.5  0, -34.5  C -80, -34.5    -50, -46.0  0, -46.0  C  80, -46.0     50, -57.5  0, -57.5  C -80, -57.5
          -50, -69.0  0, -69.0  C  80, -69.0     50, -80.5  0, -80.5  C -80, -80.5    -50, -92.0  0, -92.0  C  80, -92.0
           50,-103.5  0,-103.5  C -80,-103.5    -50,-115.0  0,-115.0  C  80,-115.0     50,-126.5  0,-126.5  C -80,-126.5
          -50,-138.0  0,-138.0  C  80,-138.0     50,-149.5  0,-149.5  C -80,-149.5    -50,-161.0  0,-161.0  C  80,-161.0
           50,-172.5  0,-172.5  C -80,-172.5    -50,-184.0  0,-184.0  C  80,-184.0     50,-195.5  0,-195.5  C -80,-195.5
          -50,-207.0  0,-207.0  C  80,-207.0     50,-218.5  0,-218.5  C -80,-218.5    -50,-230.0  0,-230.0  L  50,-230.0
        "  fill="none" stroke="black" stroke-width="4.0"/>

    <path id="spring_14" transform="translate(1400,-130)" d="
        M -50,   0.0  0,   0.0  C  80,   0.0     50, -11.0  0, -11.0  C -80, -11.0    -50, -22.0  0, -22.0  C  80, -22.0
           50, -33.0  0, -33.0  C -80, -33.0    -50, -44.0  0, -44.0  C  80, -44.0     50, -55.0  0, -55.0  C -80, -55.0
          -50, -66.0  0, -66.0  C  80, -66.0     50, -77.0  0, -77.0  C -80, -77.0    -50, -88.0  0, -88.0  C  80, -88.0
           50, -99.0  0, -99.0  C -80, -99.0    -50,-110.0  0,-110.0  C  80,-110.0     50,-121.0  0,-121.0  C -80,-121.0
          -50,-132.0  0,-132.0  C  80,-132.0     50,-143.0  0,-143.0  C -80,-143.0    -50,-154.0  0,-154.0  C  80,-154.0
           50,-165.0  0,-165.0  C -80,-165.0    -50,-176.0  0,-176.0  C  80,-176.0     50,-187.0  0,-187.0  C -80,-187.0
          -50,-198.0  0,-198.0  C  80,-198.0     50,-209.0  0,-209.0  C -80,-209.0    -50,-220.0  0,-220.0  L  50,-220.0
        "  fill="none" stroke="black" stroke-width="4.0"/>

    <path id="spring_13" transform="translate(1300,-130)" d="
        M -50,   0.0  0,   0.0  C  80,   0.0     50, -10.5  0, -10.5  C -80, -10.5    -50, -21.0  0, -21.0  C  80, -21.0
           50, -31.5  0, -31.5  C -80, -31.5    -50, -42.0  0, -42.0  C  80, -42.0     50, -52.5  0, -52.5  C -80, -52.5
          -50, -63.0  0, -63.0  C  80, -63.0     50, -73.5  0, -73.5  C -80, -73.5    -50, -84.0  0, -84.0  C  80, -84.0
           50, -94.5  0, -94.5  C -80, -94.5    -50,-105.0  0,-105.0  C  80,-105.0     50,-115.5  0,-115.5  C -80,-115.5
          -50,-126.0  0,-126.0  C  80,-126.0     50,-136.5  0,-136.5  C -80,-136.5    -50,-147.0  0,-147.0  C  80,-147.0
           50,-157.5  0,-157.5  C -80,-157.5    -50,-168.0  0,-168.0  C  80,-168.0     50,-178.5  0,-178.5  C -80,-178.5
          -50,-189.0  0,-189.0  C  80,-189.0     50,-199.5  0,-199.5  C -80,-199.5    -50,-210.0  0,-210.0  L  50,-210.0
        "  fill="none" stroke="black" stroke-width="4.0"/>

    <path id="spring_12" transform="translate(1200,-130)" d="
        M -50,   0.0  0,   0.0  C  80,   0.0     50, -10.0  0, -10.0  C -80, -10.0    -50, -20.0  0, -20.0  C  80, -20.0
           50, -30.0  0, -30.0  C -80, -30.0    -50, -40.0  0, -40.0  C  80, -40.0     50, -50.0  0, -50.0  C -80, -50.0
          -50, -60.0  0, -60.0  C  80, -60.0     50, -70.0  0, -70.0  C -80, -70.0    -50, -80.0  0, -80.0  C  80, -80.0
           50, -90.0  0, -90.0  C -80, -90.0    -50,-100.0  0,-100.0  C  80,-100.0     50,-110.0  0,-110.0  C -80,-110.0
          -50,-120.0  0,-120.0  C  80,-120.0     50,-130.0  0,-130.0  C -80,-130.0    -50,-140.0  0,-140.0  C  80,-140.0
           50,-150.0  0,-150.0  C -80,-150.0    -50,-160.0  0,-160.0  C  80,-160.0     50,-170.0  0,-170.0  C -80,-170.0
          -50,-180.0  0,-180.0  C  80,-180.0     50,-190.0  0,-190.0  C -80,-190.0    -50,-200.0  0,-200.0  L  50,-200.0
        "  fill="none" stroke="black" stroke-width="4.0"/>

    <path id="spring_11" transform="translate(1100,-130)" d="
        M -50,   0.0  0,   0.0  C  80,   0.0     50,  -9.5  0,  -9.5  C -80,  -9.5    -50, -19.0  0, -19.0  C  80, -19.0
           50, -28.5  0, -28.5  C -80, -28.5    -50, -38.0  0, -38.0  C  80, -38.0     50, -47.5  0, -47.5  C -80, -47.5
          -50, -57.0  0, -57.0  C  80, -57.0     50, -66.5  0, -66.5  C -80, -66.5    -50, -76.0  0, -76.0  C  80, -76.0
           50, -85.5  0, -85.5  C -80, -85.5    -50, -95.0  0, -95.0  C  80, -95.0     50,-104.5  0,-104.5  C -80,-104.5
          -50,-114.0  0,-114.0  C  80,-114.0     50,-123.5  0,-123.5  C -80,-123.5    -50,-133.0  0,-133.0  C  80,-133.0
           50,-142.5  0,-142.5  C -80,-142.5    -50,-152.0  0,-152.0  C  80,-152.0     50,-161.5  0,-161.5  C -80,-161.5
          -50,-171.0  0,-171.0  C  80,-171.0     50,-180.5  0,-180.5  C -80,-180.5    -50,-190.0  0,-190.0  L  50,-190.0
        "  fill="none" stroke="black" stroke-width="4.0"/>

    <path id="spring_10" transform="translate(1000,-130)" d="
        M -50,   0.0  0,   0.0  C  80,   0.0     50,  -9.0  0,  -9.0  C -80,  -9.0    -50, -18.0  0, -18.0  C  80, -18.0
           50, -27.0  0, -27.0  C -80, -27.0    -50, -36.0  0, -36.0  C  80, -36.0     50, -45.0  0, -45.0  C -80, -45.0
          -50, -54.0  0, -54.0  C  80, -54.0     50, -63.0  0, -63.0  C -80, -63.0    -50, -72.0  0, -72.0  C  80, -72.0
           50, -81.0  0, -81.0  C -80, -81.0    -50, -90.0  0, -90.0  C  80, -90.0     50, -99.0  0, -99.0  C -80, -99.0
          -50,-108.0  0,-108.0  C  80,-108.0     50,-117.0  0,-117.0  C -80,-117.0    -50,-126.0  0,-126.0  C  80,-126.0
           50,-135.0  0,-135.0  C -80,-135.0    -50,-144.0  0,-144.0  C  80,-144.0     50,-153.0  0,-153.0  C -80,-153.0
          -50,-162.0  0,-162.0  C  80,-162.0     50,-171.0  0,-171.0  C -80,-171.0    -50,-180.0  0,-180.0  L  50,-180.0
        "  fill="none" stroke="black" stroke-width="4.0"/>

    <path id="spring_9" transform="translate(900,-130)" d="
        M -50,   0.0  0,   0.0  C  80,   0.0     50,  -8.5  0,  -8.5  C -80,  -8.5    -50, -17.0  0, -17.0  C  80, -17.0
           50, -25.5  0, -25.5  C -80, -25.5    -50, -34.0  0, -34.0  C  80, -34.0     50, -42.5  0, -42.5  C -80, -42.5
          -50, -51.0  0, -51.0  C  80, -51.0     50, -59.5  0, -59.5  C -80, -59.5    -50, -68.0  0, -68.0  C  80, -68.0
           50, -76.5  0, -76.5  C -80, -76.5    -50, -85.0  0, -85.0  C  80, -85.0     50, -93.5  0, -93.5  C -80, -93.5
          -50,-102.0  0,-102.0  C  80,-102.0     50,-110.5  0,-110.5  C -80,-110.5    -50,-119.0  0,-119.0  C  80,-119.0
           50,-127.5  0,-127.5  C -80,-127.5    -50,-136.0  0,-136.0  C  80,-136.0     50,-144.5  0,-144.5  C -80,-144.5
          -50,-153.0  0,-153.0  C  80,-153.0     50,-161.5  0,-161.5  C -80,-161.5    -50,-170.0  0,-170.0  L  50,-170.0
        "  fill="none" stroke="black" stroke-width="4.0"/>

    <path id="spring_8" transform="translate(800,-130)" d="
        M -50,   0.0  0,   0.0  C  80,   0.0     50,  -8.0  0,  -8.0  C -80,  -8.0    -50, -16.0  0, -16.0  C  80, -16.0
           50, -24.0  0, -24.0  C -80, -24.0    -50, -32.0  0, -32.0  C  80, -32.0     50, -40.0  0, -40.0  C -80, -40.0
          -50, -48.0  0, -48.0  C  80, -48.0     50, -56.0  0, -56.0  C -80, -56.0    -50, -64.0  0, -64.0  C  80, -64.0
           50, -72.0  0, -72.0  C -80, -72.0    -50, -80.0  0, -80.0  C  80, -80.0     50, -88.0  0, -88.0  C -80, -88.0
          -50, -96.0  0, -96.0  C  80, -96.0     50,-104.0  0,-104.0  C -80,-104.0    -50,-112.0  0,-112.0  C  80,-112.0
           50,-120.0  0,-120.0  C -80,-120.0    -50,-128.0  0,-128.0  C  80,-128.0     50,-136.0  0,-136.0  C -80,-136.0
          -50,-144.0  0,-144.0  C  80,-144.0     50,-152.0  0,-152.0  C -80,-152.0    -50,-160.0  0,-160.0  L  50,-160.0
        "  fill="none" stroke="black" stroke-width="4.0"/>

    <path id="spring_7" transform="translate(700,-130)" d="
        M -50,   0.0  0,   0.0  C  80,   0.0     50,  -7.5  0,  -7.5  C -80,  -7.5    -50, -15.0  0, -15.0  C  80, -15.0
           50, -22.5  0, -22.5  C -80, -22.5    -50, -30.0  0, -30.0  C  80, -30.0     50, -37.5  0, -37.5  C -80, -37.5
          -50, -45.0  0, -45.0  C  80, -45.0     50, -52.5  0, -52.5  C -80, -52.5    -50, -60.0  0, -60.0  C  80, -60.0
           50, -67.5  0, -67.5  C -80, -67.5    -50, -75.0  0, -75.0  C  80, -75.0     50, -82.5  0, -82.5  C -80, -82.5
          -50, -90.0  0, -90.0  C  80, -90.0     50, -97.5  0, -97.5  C -80, -97.5    -50,-105.0  0,-105.0  C  80,-105.0
           50,-112.5  0,-112.5  C -80,-112.5    -50,-120.0  0,-120.0  C  80,-120.0     50,-127.5  0,-127.5  C -80,-127.5
          -50,-135.0  0,-135.0  C  80,-135.0     50,-142.5  0,-142.5  C -80,-142.5    -50,-150.0  0,-150.0  L  50,-150.0
        "  fill="none" stroke="black" stroke-width="4.0"/>

    <path id="spring_6" transform="translate(600,-130)" d="
        M -50,   0.0  0,   0.0  C  80,   0.0     50,  -7.0  0,  -7.0  C -80,  -7.0    -50, -14.0  0, -14.0  C  80, -14.0
           50, -21.0  0, -21.0  C -80, -21.0    -50, -28.0  0, -28.0  C  80, -28.0     50, -35.0  0, -35.0  C -80, -35.0
          -50, -42.0  0, -42.0  C  80, -42.0     50, -49.0  0, -49.0  C -80, -49.0    -50, -56.0  0, -56.0  C  80, -56.0
           50, -63.0  0, -63.0  C -80, -63.0    -50, -70.0  0, -70.0  C  80, -70.0     50, -77.0  0, -77.0  C -80, -77.0
          -50, -84.0  0, -84.0  C  80, -84.0     50, -91.0  0, -91.0  C -80, -91.0    -50, -98.0  0, -98.0  C  80, -98.0
           50,-105.0  0,-105.0  C -80,-105.0    -50,-112.0  0,-112.0  C  80,-112.0     50,-119.0  0,-119.0  C -80,-119.0
          -50,-126.0  0,-126.0  C  80,-126.0     50,-133.0  0,-133.0  C -80,-133.0    -50,-140.0  0,-140.0  L  50,-140.0
        "  fill="none" stroke="black" stroke-width="4.0"/>

    <path id="spring_5" transform="translate(500,-130)" d="
        M -50,   0.0  0,   0.0  C  80,   0.0     50,  -6.5  0,  -6.5  C -80,  -6.5    -50, -13.0  0, -13.0  C  80, -13.0
           50, -19.5  0, -19.5  C -80, -19.5    -50, -26.0  0, -26.0  C  80, -26.0     50, -32.5  0, -32.5  C -80, -32.5
          -50, -39.0  0, -39.0  C  80, -39.0     50, -45.5  0, -45.5  C -80, -45.5    -50, -52.0  0, -52.0  C  80, -52.0
           50, -58.5  0, -58.5  C -80, -58.5    -50, -65.0  0, -65.0  C  80, -65.0     50, -71.5  0, -71.5  C -80, -71.5
          -50, -78.0  0, -78.0  C  80, -78.0     50, -84.5  0, -84.5  C -80, -84.5    -50, -91.0  0, -91.0  C  80, -91.0
           50, -97.5  0, -97.5  C -80, -97.5    -50,-104.0  0,-104.0  C  80,-104.0     50,-110.5  0,-110.5  C -80,-110.5
          -50,-117.0  0,-117.0  C  80,-117.0     50,-123.5  0,-123.5  C -80,-123.5    -50,-130.0  0,-130.0  L  50,-130.0
        "  fill="none" stroke="black" stroke-width="4.0"/>

    <path id="spring_4" transform="translate(400,-130)" d="
        M -50,   0.0  0,   0.0  C  80,   0.0     50,  -6.0  0,  -6.0  C -80,  -6.0    -50, -12.0  0, -12.0  C  80, -12.0
           50, -18.0  0, -18.0  C -80, -18.0    -50, -24.0  0, -24.0  C  80, -24.0     50, -30.0  0, -30.0  C -80, -30.0
          -50, -36.0  0, -36.0  C  80, -36.0     50, -42.0  0, -42.0  C -80, -42.0    -50, -48.0  0, -48.0  C  80, -48.0
           50, -54.0  0, -54.0  C -80, -54.0    -50, -60.0  0, -60.0  C  80, -60.0     50, -66.0  0, -66.0  C -80, -66.0
          -50, -72.0  0, -72.0  C  80, -72.0     50, -78.0  0, -78.0  C -80, -78.0    -50, -84.0  0, -84.0  C  80, -84.0
           50, -90.0  0, -90.0  C -80, -90.0    -50, -96.0  0, -96.0  C  80, -96.0     50,-102.0  0,-102.0  C -80,-102.0
          -50,-108.0  0,-108.0  C  80,-108.0     50,-114.0  0,-114.0  C -80,-114.0    -50,-120.0  0,-120.0  L  50,-120.0
        "  fill="none" stroke="black" stroke-width="4.0"/>

    <path id="spring_3" transform="translate(300,-130)" d="
        M -50,   0.0  0,   0.0  C  80,   0.0     50,  -5.5  0,  -5.5  C -80,  -5.5    -50, -11.0  0, -11.0  C  80, -11.0
           50, -16.5  0, -16.5  C -80, -16.5    -50, -22.0  0, -22.0  C  80, -22.0     50, -27.5  0, -27.5  C -80, -27.5
          -50, -33.0  0, -33.0  C  80, -33.0     50, -38.5  0, -38.5  C -80, -38.5    -50, -44.0  0, -44.0  C  80, -44.0
           50, -49.5  0, -49.5  C -80, -49.5    -50, -55.0  0, -55.0  C  80, -55.0     50, -60.5  0, -60.5  C -80, -60.5
          -50, -66.0  0, -66.0  C  80, -66.0     50, -71.5  0, -71.5  C -80, -71.5    -50, -77.0  0, -77.0  C  80, -77.0
           50, -82.5  0, -82.5  C -80, -82.5    -50, -88.0  0, -88.0  C  80, -88.0     50, -93.5  0, -93.5  C -80, -93.5
          -50, -99.0  0, -99.0  C  80, -99.0     50,-104.5  0,-104.5  C -80,-104.5    -50,-110.0  0,-110.0  L  50,-110.0
        "  fill="none" stroke="black" stroke-width="4.0"/>

    <path id="spring_2" transform="translate(200,-130)" d="
        M -50,   0.0  0,   0.0  C  80,   0.0     50,  -5.0  0,  -5.0  C -80,  -5.0    -50, -10.0  0, -10.0  C  80, -10.0
           50, -15.0  0, -15.0  C -80, -15.0    -50, -20.0  0, -20.0  C  80, -20.0     50, -25.0  0, -25.0  C -80, -25.0
          -50, -30.0  0, -30.0  C  80, -30.0     50, -35.0  0, -35.0  C -80, -35.0    -50, -40.0  0, -40.0  C  80, -40.0
           50, -45.0  0, -45.0  C -80, -45.0    -50, -50.0  0, -50.0  C  80, -50.0     50, -55.0  0, -55.0  C -80, -55.0
          -50, -60.0  0, -60.0  C  80, -60.0     50, -65.0  0, -65.0  C -80, -65.0    -50, -70.0  0, -70.0  C  80, -70.0
           50, -75.0  0, -75.0  C -80, -75.0    -50, -80.0  0, -80.0  C  80, -80.0     50, -85.0  0, -85.0  C -80, -85.0
          -50, -90.0  0, -90.0  C  80, -90.0     50, -95.0  0, -95.0  C -80, -95.0    -50,-100.0  0,-100.0  L  50,-100.0
        "  fill="none" stroke="black" stroke-width="4.0"/>

    <path id="spring_1" transform="translate(100,-130)" d="
        M -50,   0.0  0,   0.0  C  80,   0.0     50,  -4.5  0,  -4.5  C -80,  -4.5    -50,  -9.0  0,  -9.0  C  80,  -9.0
           50, -13.5  0, -13.5  C -80, -13.5    -50, -18.0  0, -18.0  C  80, -18.0     50, -22.5  0, -22.5  C -80, -22.5
          -50, -27.0  0, -27.0  C  80, -27.0     50, -31.5  0, -31.5  C -80, -31.5    -50, -36.0  0, -36.0  C  80, -36.0
           50, -40.5  0, -40.5  C -80, -40.5    -50, -45.0  0, -45.0  C  80, -45.0     50, -49.5  0, -49.5  C -80, -49.5
          -50, -54.0  0, -54.0  C  80, -54.0     50, -58.5  0, -58.5  C -80, -58.5    -50, -63.0  0, -63.0  C  80, -63.0
           50, -67.5  0, -67.5  C -80, -67.5    -50, -72.0  0, -72.0  C  80, -72.0     50, -76.5  0, -76.5  C -80, -76.5
          -50, -81.0  0, -81.0  C  80, -81.0     50, -85.5  0, -85.5  C -80, -85.5    -50, -90.0  0, -90.0  L  50, -90.0
        "  fill="none" stroke="black" stroke-width="4.0"/>

    <path id="spring_0" transform="translate(0,-130)" d="
        M -50,   0.0  0,   0.0  C  80,   0.0     50,  -4.0  0,  -4.0  C -80,  -4.0    -50,  -8.0  0,  -8.0  C  80,  -8.0
           50, -12.0  0, -12.0  C -80, -12.0    -50, -16.0  0, -16.0  C  80, -16.0     50, -20.0  0, -20.0  C -80, -20.0
          -50, -24.0  0, -24.0  C  80, -24.0     50, -28.0  0, -28.0  C -80, -28.0    -50, -32.0  0, -32.0  C  80, -32.0
           50, -36.0  0, -36.0  C -80, -36.0    -50, -40.0  0, -40.0  C  80, -40.0     50, -44.0  0, -44.0  C -80, -44.0
          -50, -48.0  0, -48.0  C  80, -48.0     50, -52.0  0, -52.0  C -80, -52.0    -50, -56.0  0, -56.0  C  80, -56.0
           50, -60.0  0, -60.0  C -80, -60.0    -50, -64.0  0, -64.0  C  80, -64.0     50, -68.0  0, -68.0  C -80, -68.0
          -50, -72.0  0, -72.0  C  80, -72.0     50, -76.0  0, -76.0  C -80, -76.0    -50, -80.0  0, -80.0  L  50, -80.0
        "  fill="none" stroke="black" stroke-width="4.0"/>


<!-- ====================================================================== -->
<!-- ====================================================================== -->
<!-- 3 kinds of pins, plain, spool, and serrated -->

    <path id="basic_pin" transform="translate(0,0)" d="M 0,-3 L 45,-3 Q 50,-3 50,-8 L 50,-122 Q 50,-127 45,-127 L -45,-127 Q -50,-127 -50,-122 L -50, -8 Q -50,-3 -45,-3  L 0,-3" fill="#ffd020" stroke="black" stroke-width="2.0"/>

    <g id="spool_pin" transform="translate(100,0)">
        <path id="spool_pin_mid" d="M 0,-30 L 35,-30 L 35,-100 L -35,-100 L -35,-30 L 0,-30" fill="#003090" stroke="black" stroke-width="2.0"/>
        <path id="spool_pin_top" d="M 0,-100 L 45,-100 Q 50,-100 50,-103 L 50,-122 Q 50,-127 45,-127 L -45,-127 Q -50,-127 -50,-122 L -50,-105 Q -50,-100 -45,-100  L 0,-100" fill="#0f50b0" stroke="black" stroke-width="2.0"/>
        <path id="spool_pin_bot" d="M 0,-3 L 45,-3 Q 50,-3 50,-8 L 50,-25 Q 50,-30 45,-30 L -45,-30 Q -50,-30 -50,-25 L -50,-8 Q -50,-3 -45,-3  L 0,-3" fill="#0f50b0" stroke="black" stroke-width="2.0"/>
    </g>

    <g id="serrated_pin" transform="translate(200,0)">
        <path id="serrated_pin_base" d="M 0,-3 L 45,-3 Q 50,-3 50,-8 L 50,-122 Q 50,-127 45,-127 L -45,-127 Q -50,-127 -50,-122 L -50, -8 Q -50,-3 -45,-3  L 0,-3" fill="#409020" stroke="black" stroke-width="2.0"/>
        <path id="serrated_pin_line_0" d="M -50,-20 L 50,-20" fill="none" stroke="black" stroke-width="5.0"/>
        <path id="serrated_pin_line_1" d="M -50,-30 L 50,-30" fill="none" stroke="black" stroke-width="5.0"/>
        <path id="serrated_pin_line_2" d="M -50,-40 L 50,-40" fill="none" stroke="black" stroke-width="5.0"/>
        <path id="serrated_pin_line_3" d="M -50,-50 L 50,-50" fill="none" stroke="black" stroke-width="5.0"/>
        <path id="serrated_pin_line_4" d="M -50,-60 L 50,-60" fill="none" stroke="black" stroke-width="5.0"/>
        <path id="serrated_pin_line_5" d="M -50,-70 L 50,-70" fill="none" stroke="black" stroke-width="5.0"/>
        <path id="serrated_pin_line_6" d="M -50,-80 L 50,-80" fill="none" stroke="black" stroke-width="5.0"/>
        <path id="serrated_pin_line_7" d="M -50,-90 L 50,-90" fill="none" stroke="black" stroke-width="5.0"/>
        <path id="serrated_pin_line_8" d="M -50,-100 L 50,-100" fill="none" stroke="black" stroke-width="5.0"/>
        <path id="serrated_pin_line_9" d="M -50,-110 L 50,-110" fill="none" stroke="black" stroke-width="5.0"/>
    </g>


</svg>
