<!-- Danny Mulligan 2022-07-23 -->

<svg
    id="Layer_1"
    width="8.5in"
    height="11in"
    xmlns="http://www.w3.org/2000/svg">

  <defs>
  </defs>


<!-- ====================================================================== -->
  <g id="alignment_pattern">
    <line x1="-40" y1="0" x2="-50" y2="0" fill="none" stroke="black" stroke-width="2.0"/>
    <line x1="0" y1="-40" x2="0" y2="-50" fill="none" stroke="black" stroke-width="2.0"/>
    <line x1="40" y1="0" x2="50" y2="0" fill="none" stroke="black" stroke-width="2.0"/>
    <line x1="0" y1="40" x2="0" y2="50" fill="none" stroke="black" stroke-width="2.0"/>
    <circle cx="0" cy="0" r="40" fill="none" stroke="black" stroke-width="2.0"/>
    <path d="M 0,0 L -40,0 A 40,40 90 0 0 0,40 L 0,0" fill="black" stroke="none"/>
    <path d="M 0,0 L 40,0 A 40,40 90 0 0 0,-40 L 0,0" fill="black" stroke="none"/>
  </g>


<!-- ====================================================================== -->
  <g id="profile_outline">
    <circle cx="0" cy="0" r="500" fill="none" stroke="black" stroke-width="2.0"/>
    <circle cx="0" cy="-1100" r="40" fill="none" stroke="black" stroke-width="2.0"/>
    <path d="M 600,500  A 100,100 90 0 1 500,600
             L -500,600  A 100,100 90 0 1 -600,500
             L -600,-1150  A 100,100 90 0 1 -500,-1250
             L 500,-1250  A 100,100 90 0 1 600,-1150
             L 600,500" fill="none" stroke="black" stroke-width="2.0"/>
    <path d="M 550,-550 L -550,-550 L -550,-1010 L 550,-1010 Z" fill="none" stroke="black" stroke-width="2.0"/>
    <path d="M -550,-1010 L -550,-1200 L 550,-1200 L 550,-1010 Z" fill="none" stroke="black" stroke-width="2.0"/>

    <g id="alignment_SE" transform="translate(650,650)">
      <line x1="-40" y1="0" x2="-50" y2="0" fill="none" stroke="black" stroke-width="2.0"/>
      <line x1="0" y1="-40" x2="0" y2="-50" fill="none" stroke="black" stroke-width="2.0"/>
      <line x1="40" y1="0" x2="50" y2="0" fill="none" stroke="black" stroke-width="2.0"/>
      <line x1="0" y1="40" x2="0" y2="50" fill="none" stroke="black" stroke-width="2.0"/>
      <circle cx="0" cy="0" r="40" fill="none" stroke="black" stroke-width="2.0"/>
      <path d="M 0,0 L -40,0 A 40,40 90 0 0 0,40 L 0,0" fill="black" stroke="none"/>
      <path d="M 0,0 L 40,0 A 40,40 90 0 0 0,-40 L 0,0" fill="black" stroke="none"/>
    </g>

      <g id="alignment_SW" transform="translate(-650,650)">
      <line x1="-40" y1="0" x2="-50" y2="0" fill="none" stroke="black" stroke-width="2.0"/>
      <line x1="0" y1="-40" x2="0" y2="-50" fill="none" stroke="black" stroke-width="2.0"/>
      <line x1="40" y1="0" x2="50" y2="0" fill="none" stroke="black" stroke-width="2.0"/>
    <line x1="0" y1="40" x2="0" y2="50" fill="none" stroke="black" stroke-width="2.0"/>
      <circle cx="0" cy="0" r="40" fill="none" stroke="black" stroke-width="2.0"/>
      <path d="M 0,0 L -40,0 A 40,40 90 0 0 0,40 L 0,0" fill="black" stroke="none"/>
      <path d="M 0,0 L 40,0 A 40,40 90 0 0 0,-40 L 0,0" fill="black" stroke="none"/>
    </g>

    <g id="alignment_NE" transform="translate(650,-1300)">
      <line x1="-40" y1="0" x2="-50" y2="0" fill="none" stroke="black" stroke-width="2.0"/>
      <line x1="0" y1="-40" x2="0" y2="-50" fill="none" stroke="black" stroke-width="2.0"/>
      <line x1="40" y1="0" x2="50" y2="0" fill="none" stroke="black" stroke-width="2.0"/>
      <line x1="0" y1="40" x2="0" y2="50" fill="none" stroke="black" stroke-width="2.0"/>
      <circle cx="0" cy="0" r="40" fill="none" stroke="black" stroke-width="2.0"/>
      <path d="M 0,0 L -40,0 A 40,40 90 0 0 0,40 L 0,0" fill="black" stroke="none"/>
      <path d="M 0,0 L 40,0 A 40,40 90 0 0 0,-40 L 0,0" fill="black" stroke="none"/>
    </g>

    <g id="alignment_NW" transform="translate(-650,-1300)">
      <line x1="-40" y1="0" x2="-50" y2="0" fill="none" stroke="black" stroke-width="2.0"/>
      <line x1="0" y1="-40" x2="0" y2="-50" fill="none" stroke="black" stroke-width="2.0"/>
      <line x1="40" y1="0" x2="50" y2="0" fill="none" stroke="black" stroke-width="2.0"/>
      <line x1="0" y1="40" x2="0" y2="50" fill="none" stroke="black" stroke-width="2.0"/>
      <circle cx="0" cy="0" r="40" fill="none" stroke="black" stroke-width="2.0"/>
      <path d="M 0,0 L -40,0 A 40,40 90 0 0 0,40 L 0,0" fill="black" stroke="none"/>
      <path d="M 0,0 L 40,0 A 40,40 90 0 0 0,-40 L 0,0" fill="black" stroke="none"/>
    </g>
  </g>


<!-- ====================================================================== -->
  <g id="key_pin_0">
    <path id="key_pin_0_shape" d="M 0,0 L 45,0 Q 50,0 50,5 L 50, 95 Q 50,100 45,105 L 5,145 Q 0,150 -5,145 L -45,105 Q -50,100 -50, 95  L -50,5 Q -50,0 -45,0 L 0,0" fill="#ff00f0" stroke="black" stroke-width="2.0"/>
    <text x="0" y="100" text-anchor="middle" font-size="80">0</text>
  </g>

  <g id="key_pin_1">
    <path id="key_pin_1_shape" d="M 0,0 L 45,0 Q 50,0 50,5 L 50,105 Q 50,110 45,115 L 5,155 Q 0,160 -5,155 L -45,115 Q -50,110 -50,105  L -50,5 Q -50,0 -45,0 L 0,0" fill="#ff10e0" stroke="black" stroke-width="2.0"/>
    <text x="0" y="100" text-anchor="middle" font-size="80">1</text>
  </g>

  <g id="key_pin_2">
    <path id="key_pin_2_shape" d="M 0,0 L 45,0 Q 50,0 50,5 L 50,115 Q 50,120 45,125 L 5,165 Q 0,170 -5,165 L -45,125 Q -50,120 -50,115  L -50,5 Q -50,0 -45,0 L 0,0" fill="#ff20d0" stroke="black" stroke-width="2.0"/>
    <text x="0" y="100" text-anchor="middle" font-size="80">2</text>
  </g>

  <g id="key_pin_3">
    <path id="key_pin_3_shape" d="M 0,0 L 45,0 Q 50,0 50,5 L 50,125 Q 50,130 45,135 L 5,175 Q 0,180 -5,175 L -45,135 Q -50,130 -50,125  L -50,5 Q -50,0 -45,0 L 0,0" fill="#ff30c0" stroke="black" stroke-width="2.0"/>
    <text x="0" y="100" text-anchor="middle" font-size="80">3</text>
  </g>

  <g id="key_pin_4">
    <path id="key_pin_4_shape" d="M 0,0 L 45,0 Q 50,0 50,5 L 50,135 Q 50,140 45,145 L 5,185 Q 0,190 -5,185 L -45,145 Q -50,140 -50,135  L -50,5 Q -50,0 -45,0 L 0,0" fill="#ff40b0" stroke="black" stroke-width="2.0"/>
    <text x="0" y="100" text-anchor="middle" font-size="80">4</text>
  </g>

  <g id="key_pin_5">
    <path id="key_pin_5_shape" d="M 0,0 L 45,0 Q 50,0 50,5 L 50,145 Q 50,150 45,155 L 5,195 Q 0,200 -5,195 L -45,155 Q -50,150 -50,145  L -50,5 Q -50,0 -45,0 L 0,0" fill="#ff50a0" stroke="black" stroke-width="2.0"/>
    <text x="0" y="100" text-anchor="middle" font-size="80">5</text>
  </g>

  <g id="key_pin_6">
    <path id="key_pin_6_shape" d="M 0,0 L 45,0 Q 50,0 50,5 L 50,155 Q 50,160 45,165 L 5,205 Q 0,210 -5,205 L -45,165 Q -50,160 -50,155  L -50,5 Q -50,0 -45,0 L 0,0" fill="#ff6090" stroke="black" stroke-width="2.0"/>
    <text x="0" y="100" text-anchor="middle" font-size="80">6</text>
  </g>

  <g id="key_pin_7">
    <path id="key_pin_7_shape" d="M 0,0 L 45,0 Q 50,0 50,5 L 50,165 Q 50,170 45,175 L 5,215 Q 0,220 -5,215 L -45,175 Q -50,170 -50,165  L -50,5 Q -50,0 -45,0 L 0,0" fill="#ff7080" stroke="black" stroke-width="2.0"/>
    <text x="0" y="100" text-anchor="middle" font-size="80">7</text>
  </g>

  <g id="key_pin_8">
    <path id="key_pin_8_shape" d="M 0,0 L 45,0 Q 50,0 50,5 L 50,175 Q 50,180 45,185 L 5,225 Q 0,230 -5,225 L -45,185 Q -50,180 -50,175  L -50,5 Q -50,0 -45,0 L 0,0" fill="#ff8070" stroke="black" stroke-width="2.0"/>
    <text x="0" y="100" text-anchor="middle" font-size="80">8</text>
  </g>

  <g id="key_pin_9">
    <path id="key_pin_9_shape" d="M 0,0 L 45,0 Q 50,0 50,5 L 50,185 Q 50,190 45,195 L 5,235 Q 0,240 -5,235 L -45,195 Q -50,190 -50,185  L -50,5 Q -50,0 -45,0 L 0,0" fill="#ff9060" stroke="black" stroke-width="2.0"/>
    <text x="0" y="100" text-anchor="middle" font-size="80">9</text>
  </g>


<!-- ====================================================================== -->
  <path id="spring_b" d="M -50,-200.0  0,-200.0  C  80,-200.0     50,-211.0  0,-211.0  C -80,-211.0    -50,-222.0  0,-222.0  C  80,-222.0
                            50,-233.0  0,-233.0  C -80,-233.0    -50,-244.0  0,-244.0  C  80,-244.0     50,-255.0  0,-255.0  C -80,-255.0
                           -50,-266.0  0,-266.0  C  80,-266.0     50,-277.0  0,-277.0  C -80,-277.0    -50,-288.0  0,-288.0  C  80,-288.0
                            50,-299.0  0,-299.0  C -80,-299.0    -50,-310.0  0,-310.0  C  80,-310.0     50,-321.0  0,-321.0  C -80,-321.0
                           -50,-332.0  0,-332.0  C  80,-332.0     50,-343.0  0,-343.0  C -80,-343.0    -50,-354.0  0,-354.0  C  80,-354.0
                            50,-365.0  0,-365.0  C -80,-365.0    -50,-376.0  0,-376.0  C  80,-376.0     50,-387.0  0,-387.0  C -80,-387.0
                           -50,-398.0  0,-398.0  C  80,-398.0     50,-409.0  0,-409.0  C -80,-409.0    -50,-420.0  0,-420.0  L  50,-420.0"
        fill="none" stroke="black" stroke-width="4.0"/>

  <path id="spring_a" d="M -50,-200.0  0,-200.0  C  80,-200.0     50,-210.5  0,-210.5  C -80,-210.5    -50,-221.0  0,-221.0  C  80,-221.0
                            50,-231.5  0,-231.5  C -80,-231.5    -50,-242.0  0,-242.0  C  80,-242.0     50,-252.5  0,-252.5  C -80,-252.5
                           -50,-263.0  0,-263.0  C  80,-263.0     50,-273.5  0,-273.5  C -80,-273.5    -50,-284.0  0,-284.0  C  80,-284.0
                            50,-294.5  0,-294.5  C -80,-294.5    -50,-305.0  0,-305.0  C  80,-305.0     50,-315.5  0,-315.5  C -80,-315.5
                           -50,-326.0  0,-326.0  C  80,-326.0     50,-336.5  0,-336.5  C -80,-336.5    -50,-347.0  0,-347.0  C  80,-347.0
                            50,-357.6  0,-357.5  C -80,-357.5    -50,-368.0  0,-368.0  C  80,-368.0     50,-378.5  0,-378.5  C -80,-378.5
                           -50,-389.0  0,-389.0  C  80,-389.0     50,-399.5  0,-399.5  C -80,-399.5    -50,-410.0  0,-410.0  L  50,-410.0"
        fill="none" stroke="black" stroke-width="4.0"/>

  <path id="spring_9" d="M -50,-200.0  0,-200.0  C  80,-200.0     50,-210.0  0,-210.0  C -80,-210.0    -50,-220.0  0,-220.0  C  80,-220.0
                            50,-230.0  0,-230.0  C -80,-230.0    -50,-240.0  0,-240.0  C  80,-240.0     50,-250.0  0,-250.0  C -80,-250.0
                           -50,-260.0  0,-260.0  C  80,-260.0     50,-270.0  0,-270.0  C -80,-270.0    -50,-280.0  0,-280.0  C  80,-280.0
                            50,-290.0  0,-290.0  C -80,-290.0    -50,-300.0  0,-300.0  C  80,-300.0     50,-310.0  0,-310.0  C -80,-310.0
                           -50,-320.0  0,-320.0  C  80,-320.0     50,-330.0  0,-330.0  C -80,-330.0    -50,-340.0  0,-340.0  C  80,-340.0
                            50,-350.0  0,-350.0  C -80,-350.0    -50,-360.0  0,-360.0  C  80,-360.0     50,-370.0  0,-370.0  C -80,-370.0
                           -50,-380.0  0,-380.0  C  80,-380.0     50,-390.0  0,-390.0  C -80,-390.0    -50,-400.0  0,-400.0  L  50,-400.0"
        fill="none" stroke="black" stroke-width="4.0"/>

  <path id="spring_8" d="M -50,-200.0  0,-200.0  C  80,-200.0     50,-209.5  0,-209.5  C -80,-209.5    -50,-219.0  0,-219.0  C  80,-219.0
                            50,-228.5  0,-228.5  C -80,-228.5    -50,-238.0  0,-238.0  C  80,-238.0     50,-247.5  0,-247.5  C -80,-247.5
                           -50,-257.0  0,-257.0  C  80,-257.0     50,-266.5  0,-266.5  C -80,-266.5    -50,-276.0  0,-276.0  C  80,-276.0
                            50,-285.5  0,-285.5  C -80,-285.5    -50,-295.0  0,-295.0  C  80,-295.0     50,-304.5  0,-304.5  C -80,-304.5
                           -50,-314.0  0,-314.0  C  80,-314.0     50,-323.5  0,-323.5  C -80,-323.5    -50,-333.0  0,-333.0  C  80,-333.0
                            50,-342.5  0,-342.5  C -80,-342.5    -50,-352.0  0,-352.0  C  80,-352.0     50,-361.5  0,-361.5  C -80,-361.5
                           -50,-371.0  0,-371.0  C  80,-371.0     50,-380.5  0,-380.5  C -80,-380.5    -50,-390.0  0,-390.0  L  50,-390.0"
        fill="none" stroke="black" stroke-width="4.0"/>

  <path id="spring_7" d="M -50,-200.0  0,-200.0  C  80,-200.0     50,-209.0  0,-209.0  C -80,-209.0    -50,-218.0  0,-218.0  C  80,-218.0
                            50,-227.0  0,-227.0  C -80,-227.0    -50,-236.0  0,-236.0  C  80,-236.0     50,-245.0  0,-245.0  C -80,-245.0
                           -50,-254.0  0,-254.0  C  80,-254.0     50,-263.0  0,-263.0  C -80,-263.0    -50,-272.0  0,-272.0  C  80,-272.0
                            50,-281.0  0,-281.0  C -80,-281.0    -50,-290.0  0,-290.0  C  80,-290.0     50,-299.0  0,-299.0  C -80,-299.0
                           -50,-308.0  0,-308.0  C  80,-308.0     50,-317.0  0,-317.0  C -80,-317.0    -50,-326.0  0,-326.0  C  80,-326.0
                            50,-335.0  0,-335.0  C -80,-335.0    -50,-344.0  0,-344.0  C  80,-344.0     50,-353.0  0,-353.0  C -80,-353.0
                           -50,-362.0  0,-362.0  C  80,-362.0     50,-371.0  0,-371.0  C -80,-371.0    -50,-380.0  0,-380.0  L  50,-380.0"
        fill="none" stroke="black" stroke-width="4.0"/>

  <path id="spring_6" d="M -50,-200.0  0,-200.0  C  80,-200.0     50,-208.5  0,-208.5  C -80,-208.5    -50,-217.0  0,-217.0  C  80,-217.0
                            50,-225.5  0,-225.5  C -80,-225.5    -50,-234.0  0,-234.0  C  80,-234.0     50,-242.5  0,-242.5  C -80,-242.5
                           -50,-251.0  0,-251.0  C  80,-251.0     50,-259.5  0,-259.5  C -80,-259.5    -50,-268.0  0,-268.0  C  80,-268.0
                            50,-276.5  0,-276.5  C -80,-276.5    -50,-285.0  0,-285.0  C  80,-285.0     50,-293.5  0,-293.5  C -80,-293.5
                           -50,-302.0  0,-302.0  C  80,-302.0     50,-310.5  0,-310.5  C -80,-310.5    -50,-319.0  0,-319.0  C  80,-319.0
                            50,-327.5  0,-327.5  C -80,-327.5    -50,-336.0  0,-336.0  C  80,-336.0     50,-344.5  0,-344.5  C -80,-344.5
                           -50,-353.0  0,-353.0  C  80,-353.0     50,-361.5  0,-361.5  C -80,-361.5    -50,-370.0  0,-370.0  L  50,-370.0"
        fill="none" stroke="black" stroke-width="4.0"/>

  <path id="spring_5" d="M -50,-200.0  0,-200.0  C  80,-200.0     50,-208.0  0,-208.0  C -80,-208.0    -50,-216.0  0,-216.0  C  80,-216.0
                            50,-224.0  0,-224.0  C -80,-224.0    -50,-232.0  0,-232.0  C  80,-232.0     50,-240.0  0,-240.0  C -80,-240.0
                           -50,-248.0  0,-248.0  C  80,-248.0     50,-256.0  0,-256.0  C -80,-256.0    -50,-264.0  0,-264.0  C  80,-264.0
                            50,-272.0  0,-272.0  C -80,-272.0    -50,-280.0  0,-280.0  C  80,-280.0     50,-288.0  0,-288.0  C -80,-288.0
                           -50,-296.0  0,-296.0  C  80,-296.0     50,-304.0  0,-304.0  C -80,-304.0    -50,-312.0  0,-312.0  C  80,-312.0
                            50,-320.0  0,-320.0  C -80,-320.0    -50,-328.0  0,-328.0  C  80,-328.0     50,-336.0  0,-336.0  C -80,-336.0
                           -50,-344.0  0,-344.0  C  80,-344.0     50,-352.0  0,-352.0  C -80,-352.0    -50,-360.0  0,-360.0  L  50,-360.0"
        fill="none" stroke="black" stroke-width="4.0"/>

  <path id="spring_4" d="M -50,-200.0  0,-200.0  C  80,-200.0     50,-207.5  0,-207.5  C -80,-207.5    -50,-215.0  0,-215.0  C  80,-215.0
                            50,-222.5  0,-222.5  C -80,-222.5    -50,-230.0  0,-230.0  C  80,-230.0     50,-237.5  0,-237.5  C -80,-237.5
                           -50,-245.0  0,-245.0  C  80,-245.0     50,-252.5  0,-252.5  C -80,-252.5    -50,-260.0  0,-260.0  C  80,-260.0
                            50,-267.5  0,-267.5  C -80,-267.5    -50,-275.0  0,-275.0  C  80,-275.0     50,-282.5  0,-282.5  C -80,-282.5
                           -50,-290.0  0,-290.0  C  80,-290.0     50,-297.5  0,-297.5  C -80,-297.5    -50,-305.0  0,-305.0  C  80,-305.0
                            50,-312.5  0,-312.5  C -80,-312.5    -50,-320.0  0,-320.0  C  80,-320.0     50,-327.5  0,-327.5  C -80,-327.5
                           -50,-335.0  0,-335.0  C  80,-335.0     50,-342.5  0,-342.5  C -80,-342.5    -50,-350.0  0,-350.0  L  50,-350.0"
        fill="none" stroke="black" stroke-width="4.0"/>

  <path id="spring_3" d="M -50,-200.0  0,-200.0  C  80,-200.0     50,-207.0  0,-207.0  C -80,-207.0    -50,-214.0  0,-214.0  C  80,-214.0
                            50,-221.0  0,-221.0  C -80,-221.0    -50,-228.0  0,-228.0  C  80,-228.0     50,-235.0  0,-235.0  C -80,-235.0
                           -50,-242.0  0,-242.0  C  80,-242.0     50,-249.0  0,-249.0  C -80,-249.0    -50,-256.0  0,-256.0  C  80,-256.0
                            50,-263.0  0,-263.0  C -80,-263.0    -50,-270.0  0,-270.0  C  80,-270.0     50,-277.0  0,-277.0  C -80,-277.0
                           -50,-284.0  0,-284.0  C  80,-284.0     50,-291.0  0,-291.0  C -80,-291.0    -50,-298.0  0,-298.0  C  80,-298.0
                            50,-305.0  0,-305.0  C -80,-305.0    -50,-312.0  0,-312.0  C  80,-312.0     50,-319.0  0,-319.0  C -80,-319.0
                           -50,-326.0  0,-326.0  C  80,-326.0     50,-333.0  0,-333.0  C -80,-333.0    -50,-340.0  0,-340.0  L  50,-340.0"
        fill="none" stroke="black" stroke-width="4.0"/>

  <path id="spring_2" d="M -50,-200.0  0,-200.0  C  80,-200.0     50,-206.5  0,-206.5  C -80,-206.5    -50,-213.0  0,-213.0  C  80,-213.0
                            50,-219.5  0,-219.5  C -80,-219.5    -50,-226.0  0,-226.0  C  80,-226.0     50,-232.5  0,-232.5  C -80,-232.5
                           -50,-239.0  0,-239.0  C  80,-239.0     50,-245.5  0,-245.5  C -80,-245.5    -50,-252.0  0,-252.0  C  80,-252.0
                            50,-258.5  0,-258.5  C -80,-258.5    -50,-265.0  0,-265.0  C  80,-265.0     50,-271.5  0,-271.5  C -80,-271.5
                           -50,-278.0  0,-278.0  C  80,-278.0     50,-284.5  0,-284.5  C -80,-284.5    -50,-291.0  0,-291.0  C  80,-291.0
                            50,-297.5  0,-297.5  C -80,-297.5    -50,-304.0  0,-304.0  C  80,-304.0     50,-310.5  0,-310.5  C -80,-310.5
                           -50,-317.0  0,-317.0  C  80,-317.0     50,-323.5  0,-323.5  C -80,-323.5    -50,-330.0  0,-330.0  L  50,-330.0"
        fill="none" stroke="black" stroke-width="4.0"/>

  <path id="spring_1" d="M -50,-200.0  0,-200.0  C  80,-200.0     50,-206.0  0,-206.0  C -80,-206.0    -50,-212.0  0,-212.0  C  80,-212.0
                            50,-218.0  0,-218.0  C -80,-218.0    -50,-224.0  0,-224.0  C  80,-224.0     50,-230.0  0,-230.0  C -80,-230.0
                           -50,-236.0  0,-236.0  C  80,-236.0     50,-242.0  0,-242.0  C -80,-242.0    -50,-248.0  0,-248.0  C  80,-248.0
                            50,-254.0  0,-254.0  C -80,-254.0    -50,-260.0  0,-260.0  C  80,-260.0     50,-266.0  0,-266.0  C -80,-266.0
                           -50,-272.0  0,-272.0  C  80,-272.0     50,-278.0  0,-278.0  C -80,-278.0    -50,-284.0  0,-284.0  C  80,-284.0
                            50,-290.0  0,-290.0  C -80,-290.0    -50,-296.0  0,-296.0  C  80,-296.0     50,-302.0  0,-302.0  C -80,-302.0
                           -50,-308.0  0,-308.0  C  80,-308.0     50,-314.0  0,-314.0  C -80,-314.0    -50,-320.0  0,-320.0  L  50,-320.0"
        fill="none" stroke="black" stroke-width="4.0"/>

  <path id="spring_0" d="M -50,-200.0  0,-200.0  C  80,-200.0     50,-205.5  0,-205.5  C -80,-205.5    -50,-211.0  0,-211.0  C  80,-211.0
                            50,-216.5  0,-216.5  C -80,-216.5    -50,-222.0  0,-222.0  C  80,-222.0     50,-227.5  0,-227.5  C -80,-227.5
                           -50,-233.0  0,-233.0  C  80,-233.0     50,-238.5  0,-238.5  C -80,-238.5    -50,-244.0  0,-244.0  C  80,-244.0
                            50,-249.5  0,-249.5  C -80,-249.5    -50,-255.0  0,-255.0  C  80,-255.0     50,-260.5  0,-260.5  C -80,-260.5
                           -50,-266.0  0,-266.0  C  80,-266.0     50,-271.5  0,-271.5  C -80,-271.5    -50,-277.0  0,-277.0  C  80,-277.0
                            50,-282.5  0,-282.5  C -80,-282.5    -50,-288.0  0,-288.0  C  80,-288.0     50,-293.5  0,-293.5  C -80,-293.5
                           -50,-299.0  0,-299.0  C  80,-299.0     50,-304.5  0,-304.5  C -80,-304.5    -50,-310.0  0,-310.0  L  50,-310.0"
        fill="none" stroke="black" stroke-width="4.0"/>


<!-- ====================================================================== -->
  <path id="basic_pin" d="M 0,-3 L 45,-3 Q 50,-3 50,-8 L 50,-122 Q 50,-127 45,-127 L -45,-127 Q -50,-127 -50,-122 L -50, -8 Q -50,-3 -45,-3  L 0,-3" fill="#ffd020" stroke="black" stroke-width="2.0"/>

  <g id="spool_pin">
    <path id="spool_pin_mid" d="M 0,-30 L 35,-30 L 35,-100 L -35,-100 L -35,-30 L 0,-30" fill="#003090" stroke="black" stroke-width="2.0"/>
    <path id="spool_pin_top" d="M 0,-100 L 45,-100 Q 50,-100 50,-103 L 50,-122 Q 50,-127 45,-127 L -45,-127 Q -50,-127 -50,-122 L -50,-105 Q -50,-100 -45,-100  L 0,-100" fill="#0f50b0" stroke="black" stroke-width="2.0"/>
    <path id="spool_pin_bot" d="M 0,-3 L 45,-3 Q 50,-3 50,-8 L 50,-25 Q 50,-30 45,-30 L -45,-30 Q -50,-30 -50,-25 L -50,-8 Q -50,-3 -45,-3  L 0,-3" fill="#0f50b0" stroke="black" stroke-width="2.0"/>
  </g>

  <g id="serrated_pin">
    <path id="serrated_pin_base" d="M 0,-3 L 45,-3 Q 50,-3 50,-8 L 50,-122 Q 50,-127 45,-127 L -45,-127 Q -50,-127 -50,-122 L -50, -8 Q -50,-3 -45,-3  L 0,-3" fill="#409020" stroke="black" stroke-width="2.0"/>
    <path id="serrated_pin_line_0" d="M -50,-20 L 50,-20" fill="none" stroke="black" stroke-width="5.0"/>
    <path id="serrated_pin_line_1" d="M -50,-30 L 50,-30" fill="none" stroke="black" stroke-width="5.0"/>
    <path id="serrated_pin_line_2" d="M -50,-40 L 50,-40" fill="none" stroke="black" stroke-width="5.0"/>
    <path id="serrated_pin_line_3" d="M -50,-50 L 50,-50" fill="none" stroke="black" stroke-width="5.0"/>
    <path id="serrated_pin_line_4" d="M -50,-60 L 50,-60" fill="none" stroke="black" stroke-width="5.0"/>
    <path id="serrated_pin_line_5" d="M -50,-70 L 50,-70" fill="none" stroke="black" stroke-width="5.0"/>
    <path id="serrated_pin_line_6" d="M -50,-80 L 50,-80" fill="none" stroke="black" stroke-width="5.0"/>
    <path id="serrated_pin_line_7" d="M -50,-90 L 50,-90" fill="none" stroke="black" stroke-width="5.0"/>
    <path id="serrated_pin_line_8" d="M -50,-100 L 50,-100" fill="none" stroke="black" stroke-width="5.0"/>
    <path id="serrated_pin_line_9" d="M -50,-110 L 50,-110" fill="none" stroke="black" stroke-width="5.0"/>
  </g>



<!-- ====================================================================== -->
  <!-- Example of all pins with bottoms lined up (no key inserted) -->
  <g id="example1"  transform="translate(200,500)">
    <line x1="-100" y1="-245" x2="1450" y2="-245" fill="none" stroke="black" stroke-width="5.0"/>
    <line x1="-100" y1="0" x2="1450" y2="0" fill="none" stroke="black" stroke-width="5.0"/>

    <g id="key_pin_0a" transform="translate(0,110)">
      <path id="key_pin_0_shape" d="M 0,0 L 45,0 Q 50,0 50,5 L 50, 95 Q 50,100 45,105 L 5,145 Q 0,150 -5,145 L -45,105 Q -50,100 -50, 95  L -50,5 Q -50,0 -45,0 L 0,0" fill="#ff00f0" stroke="black" stroke-width="2.0"/>
      <text x="0" y="100" text-anchor="middle" font-size="80">0</text>
    </g>

    <g id="key_pin_1a" transform="translate(150,100)">
      <path id="key_pin_1_shape" d="M 0,0 L 45,0 Q 50,0 50,5 L 50,105 Q 50,110 45,115 L 5,155 Q 0,160 -5,155 L -45,115 Q -50,110 -50,105  L -50,5 Q -50,0 -45,0 L 0,0" fill="#ff10e0" stroke="black" stroke-width="2.0"/>
      <text x="0" y="100" text-anchor="middle" font-size="80">1</text>
    </g>

    <g id="key_pin_2a" transform="translate(300,90)">
      <path id="key_pin_2_shape" d="M 0,0 L 45,0 Q 50,0 50,5 L 50,115 Q 50,120 45,125 L 5,165 Q 0,170 -5,165 L -45,125 Q -50,120 -50,115  L -50,5 Q -50,0 -45,0 L 0,0" fill="#ff20d0" stroke="black" stroke-width="2.0"/>
      <text x="0" y="100" text-anchor="middle" font-size="80">2</text>
    </g>

    <g id="key_pin_3a" transform="translate(450,80)">
      <path id="key_pin_3_shape" d="M 0,0 L 45,0 Q 50,0 50,5 L 50,125 Q 50,130 45,135 L 5,175 Q 0,180 -5,175 L -45,135 Q -50,130 -50,125  L -50,5 Q -50,0 -45,0 L 0,0" fill="#ff30c0" stroke="black" stroke-width="2.0"/>
      <text x="0" y="100" text-anchor="middle" font-size="80">3</text>
    </g>

    <g id="key_pin_4a" transform="translate(600,70)">
      <path id="key_pin_4_shape" d="M 0,0 L 45,0 Q 50,0 50,5 L 50,135 Q 50,140 45,145 L 5,185 Q 0,190 -5,185 L -45,145 Q -50,140 -50,135  L -50,5 Q -50,0 -45,0 L 0,0" fill="#ff40b0" stroke="black" stroke-width="2.0"/>
      <text x="0" y="100" text-anchor="middle" font-size="80">4</text>
    </g>

    <g id="key_pin_5a" transform="translate(750,60)">
      <path id="key_pin_5_shape" d="M 0,0 L 45,0 Q 50,0 50,5 L 50,145 Q 50,150 45,155 L 5,195 Q 0,200 -5,195 L -45,155 Q -50,150 -50,145  L -50,5 Q -50,0 -45,0 L 0,0" fill="#ff50a0" stroke="black" stroke-width="2.0"/>
      <text x="0" y="100" text-anchor="middle" font-size="80">5</text>
    </g>

    <g id="key_pin_6a" transform="translate(900,50)">
      <path id="key_pin_6_shape" d="M 0,0 L 45,0 Q 50,0 50,5 L 50,155 Q 50,160 45,165 L 5,205 Q 0,210 -5,205 L -45,165 Q -50,160 -50,155  L -50,5 Q -50,0 -45,0 L 0,0" fill="#ff6090" stroke="black" stroke-width="2.0"/>
      <text x="0" y="100" text-anchor="middle" font-size="80">6</text>
    </g>

    <g id="key_pin_7a" transform="translate(1050,40)">
      <path id="key_pin_7_shape" d="M 0,0 L 45,0 Q 50,0 50,5 L 50,165 Q 50,170 45,175 L 5,215 Q 0,220 -5,215 L -45,175 Q -50,170 -50,165  L -50,5 Q -50,0 -45,0 L 0,0" fill="#ff7080" stroke="black" stroke-width="2.0"/>
      <text x="0" y="100" text-anchor="middle" font-size="80">7</text>
    </g>

    <g id="key_pin_8a" transform="translate(1200,30)">
      <path id="key_pin_8_shape" d="M 0,0 L 45,0 Q 50,0 50,5 L 50,175 Q 50,180 45,185 L 5,225 Q 0,230 -5,225 L -45,185 Q -50,180 -50,175  L -50,5 Q -50,0 -45,0 L 0,0" fill="#ff8070" stroke="black" stroke-width="2.0"/>
      <text x="0" y="100" text-anchor="middle" font-size="80">8</text>
    </g>

    <g id="key_pin_9a" transform="translate(1350,20)">
      <path id="key_pin_9_shape" d="M 0,0 L 45,0 Q 50,0 50,5 L 50,185 Q 50,190 45,195 L 5,235 Q 0,240 -5,235 L -45,195 Q -50,190 -50,185  L -50,5 Q -50,0 -45,0 L 0,0" fill="#ff9060" stroke="black" stroke-width="2.0"/>
      <text x="0" y="100" text-anchor="middle" font-size="80">9</text>
    </g>


    <g id="serrated_pin_0" transform="translate(0,110)">
      <path id="serrated_pin_base" d="M 0,-3 L 45,-3 Q 50,-3 50,-8 L 50,-122 Q 50,-127 45,-127 L -45,-127 Q -50,-127 -50,-122 L -50, -8 Q -50,-3 -45,-3  L 0,-3" fill="#409020" stroke="black" stroke-width="2.0"/>
      <path id="serrated_pin_line_0" d="M -50,-20 L 50,-20" fill="none" stroke="black" stroke-width="5.0"/>
      <path id="serrated_pin_line_1" d="M -50,-30 L 50,-30" fill="none" stroke="black" stroke-width="5.0"/>
      <path id="serrated_pin_line_2" d="M -50,-40 L 50,-40" fill="none" stroke="black" stroke-width="5.0"/>
      <path id="serrated_pin_line_3" d="M -50,-50 L 50,-50" fill="none" stroke="black" stroke-width="5.0"/>
      <path id="serrated_pin_line_4" d="M -50,-60 L 50,-60" fill="none" stroke="black" stroke-width="5.0"/>
      <path id="serrated_pin_line_5" d="M -50,-70 L 50,-70" fill="none" stroke="black" stroke-width="5.0"/>
      <path id="serrated_pin_line_6" d="M -50,-80 L 50,-80" fill="none" stroke="black" stroke-width="5.0"/>
      <path id="serrated_pin_line_7" d="M -50,-90 L 50,-90" fill="none" stroke="black" stroke-width="5.0"/>
      <path id="serrated_pin_line_8" d="M -50,-100 L 50,-100" fill="none" stroke="black" stroke-width="5.0"/>
      <path id="serrated_pin_line_9" d="M -50,-110 L 50,-110" fill="none" stroke="black" stroke-width="5.0"/>
    </g>

    <g id="serrated_pin_1" transform="translate(150,100)">
      <path id="serrated_pin_base" d="M 0,-3 L 45,-3 Q 50,-3 50,-8 L 50,-122 Q 50,-127 45,-127 L -45,-127 Q -50,-127 -50,-122 L -50, -8 Q -50,-3 -45,-3  L 0,-3" fill="#409020" stroke="black" stroke-width="2.0"/>
      <path id="serrated_pin_line_0" d="M -50,-20 L 50,-20" fill="none" stroke="black" stroke-width="5.0"/>
      <path id="serrated_pin_line_1" d="M -50,-30 L 50,-30" fill="none" stroke="black" stroke-width="5.0"/>
      <path id="serrated_pin_line_2" d="M -50,-40 L 50,-40" fill="none" stroke="black" stroke-width="5.0"/>
      <path id="serrated_pin_line_3" d="M -50,-50 L 50,-50" fill="none" stroke="black" stroke-width="5.0"/>
      <path id="serrated_pin_line_4" d="M -50,-60 L 50,-60" fill="none" stroke="black" stroke-width="5.0"/>
      <path id="serrated_pin_line_5" d="M -50,-70 L 50,-70" fill="none" stroke="black" stroke-width="5.0"/>
      <path id="serrated_pin_line_6" d="M -50,-80 L 50,-80" fill="none" stroke="black" stroke-width="5.0"/>
      <path id="serrated_pin_line_7" d="M -50,-90 L 50,-90" fill="none" stroke="black" stroke-width="5.0"/>
      <path id="serrated_pin_line_8" d="M -50,-100 L 50,-100" fill="none" stroke="black" stroke-width="5.0"/>
      <path id="serrated_pin_line_9" d="M -50,-110 L 50,-110" fill="none" stroke="black" stroke-width="5.0"/>
    </g>

    <g id="serrated_pin_2" transform="translate(300,90)">
      <path id="serrated_pin_base" d="M 0,-3 L 45,-3 Q 50,-3 50,-8 L 50,-122 Q 50,-127 45,-127 L -45,-127 Q -50,-127 -50,-122 L -50, -8 Q -50,-3 -45,-3  L 0,-3" fill="#409020" stroke="black" stroke-width="2.0"/>
      <path id="serrated_pin_line_0" d="M -50,-20 L 50,-20" fill="none" stroke="black" stroke-width="5.0"/>
      <path id="serrated_pin_line_1" d="M -50,-30 L 50,-30" fill="none" stroke="black" stroke-width="5.0"/>
      <path id="serrated_pin_line_2" d="M -50,-40 L 50,-40" fill="none" stroke="black" stroke-width="5.0"/>
      <path id="serrated_pin_line_3" d="M -50,-50 L 50,-50" fill="none" stroke="black" stroke-width="5.0"/>
      <path id="serrated_pin_line_4" d="M -50,-60 L 50,-60" fill="none" stroke="black" stroke-width="5.0"/>
      <path id="serrated_pin_line_5" d="M -50,-70 L 50,-70" fill="none" stroke="black" stroke-width="5.0"/>
      <path id="serrated_pin_line_6" d="M -50,-80 L 50,-80" fill="none" stroke="black" stroke-width="5.0"/>
      <path id="serrated_pin_line_7" d="M -50,-90 L 50,-90" fill="none" stroke="black" stroke-width="5.0"/>
      <path id="serrated_pin_line_8" d="M -50,-100 L 50,-100" fill="none" stroke="black" stroke-width="5.0"/>
      <path id="serrated_pin_line_9" d="M -50,-110 L 50,-110" fill="none" stroke="black" stroke-width="5.0"/>
    </g>

    <g id="serrated_pin_3" transform="translate(450,80)">
      <path id="serrated_pin_base" d="M 0,-3 L 45,-3 Q 50,-3 50,-8 L 50,-122 Q 50,-127 45,-127 L -45,-127 Q -50,-127 -50,-122 L -50, -8 Q -50,-3 -45,-3  L 0,-3" fill="#409020" stroke="black" stroke-width="2.0"/>
      <path id="serrated_pin_line_0" d="M -50,-20 L 50,-20" fill="none" stroke="black" stroke-width="5.0"/>
      <path id="serrated_pin_line_1" d="M -50,-30 L 50,-30" fill="none" stroke="black" stroke-width="5.0"/>
      <path id="serrated_pin_line_2" d="M -50,-40 L 50,-40" fill="none" stroke="black" stroke-width="5.0"/>
      <path id="serrated_pin_line_3" d="M -50,-50 L 50,-50" fill="none" stroke="black" stroke-width="5.0"/>
      <path id="serrated_pin_line_4" d="M -50,-60 L 50,-60" fill="none" stroke="black" stroke-width="5.0"/>
      <path id="serrated_pin_line_5" d="M -50,-70 L 50,-70" fill="none" stroke="black" stroke-width="5.0"/>
      <path id="serrated_pin_line_6" d="M -50,-80 L 50,-80" fill="none" stroke="black" stroke-width="5.0"/>
      <path id="serrated_pin_line_7" d="M -50,-90 L 50,-90" fill="none" stroke="black" stroke-width="5.0"/>
      <path id="serrated_pin_line_8" d="M -50,-100 L 50,-100" fill="none" stroke="black" stroke-width="5.0"/>
      <path id="serrated_pin_line_9" d="M -50,-110 L 50,-110" fill="none" stroke="black" stroke-width="5.0"/>
    </g>

    <g id="serrated_pin_4" transform="translate(600,70)">
      <path id="serrated_pin_base" d="M 0,-3 L 45,-3 Q 50,-3 50,-8 L 50,-122 Q 50,-127 45,-127 L -45,-127 Q -50,-127 -50,-122 L -50, -8 Q -50,-3 -45,-3  L 0,-3" fill="#409020" stroke="black" stroke-width="2.0"/>
      <path id="serrated_pin_line_0" d="M -50,-20 L 50,-20" fill="none" stroke="black" stroke-width="5.0"/>
      <path id="serrated_pin_line_1" d="M -50,-30 L 50,-30" fill="none" stroke="black" stroke-width="5.0"/>
      <path id="serrated_pin_line_2" d="M -50,-40 L 50,-40" fill="none" stroke="black" stroke-width="5.0"/>
      <path id="serrated_pin_line_3" d="M -50,-50 L 50,-50" fill="none" stroke="black" stroke-width="5.0"/>
      <path id="serrated_pin_line_4" d="M -50,-60 L 50,-60" fill="none" stroke="black" stroke-width="5.0"/>
      <path id="serrated_pin_line_5" d="M -50,-70 L 50,-70" fill="none" stroke="black" stroke-width="5.0"/>
      <path id="serrated_pin_line_6" d="M -50,-80 L 50,-80" fill="none" stroke="black" stroke-width="5.0"/>
      <path id="serrated_pin_line_7" d="M -50,-90 L 50,-90" fill="none" stroke="black" stroke-width="5.0"/>
      <path id="serrated_pin_line_8" d="M -50,-100 L 50,-100" fill="none" stroke="black" stroke-width="5.0"/>
      <path id="serrated_pin_line_9" d="M -50,-110 L 50,-110" fill="none" stroke="black" stroke-width="5.0"/>
    </g>

    <g id="serrated_pin_5" transform="translate(750,60)">
      <path id="serrated_pin_base" d="M 0,-3 L 45,-3 Q 50,-3 50,-8 L 50,-122 Q 50,-127 45,-127 L -45,-127 Q -50,-127 -50,-122 L -50, -8 Q -50,-3 -45,-3  L 0,-3" fill="#409020" stroke="black" stroke-width="2.0"/>
      <path id="serrated_pin_line_0" d="M -50,-20 L 50,-20" fill="none" stroke="black" stroke-width="5.0"/>
      <path id="serrated_pin_line_1" d="M -50,-30 L 50,-30" fill="none" stroke="black" stroke-width="5.0"/>
      <path id="serrated_pin_line_2" d="M -50,-40 L 50,-40" fill="none" stroke="black" stroke-width="5.0"/>
      <path id="serrated_pin_line_3" d="M -50,-50 L 50,-50" fill="none" stroke="black" stroke-width="5.0"/>
      <path id="serrated_pin_line_4" d="M -50,-60 L 50,-60" fill="none" stroke="black" stroke-width="5.0"/>
      <path id="serrated_pin_line_5" d="M -50,-70 L 50,-70" fill="none" stroke="black" stroke-width="5.0"/>
      <path id="serrated_pin_line_6" d="M -50,-80 L 50,-80" fill="none" stroke="black" stroke-width="5.0"/>
      <path id="serrated_pin_line_7" d="M -50,-90 L 50,-90" fill="none" stroke="black" stroke-width="5.0"/>
      <path id="serrated_pin_line_8" d="M -50,-100 L 50,-100" fill="none" stroke="black" stroke-width="5.0"/>
      <path id="serrated_pin_line_9" d="M -50,-110 L 50,-110" fill="none" stroke="black" stroke-width="5.0"/>
    </g>

    <g id="serrated_pin_6" transform="translate(900,50)">
      <path id="serrated_pin_base" d="M 0,-3 L 45,-3 Q 50,-3 50,-8 L 50,-122 Q 50,-127 45,-127 L -45,-127 Q -50,-127 -50,-122 L -50, -8 Q -50,-3 -45,-3  L 0,-3" fill="#409020" stroke="black" stroke-width="2.0"/>
      <path id="serrated_pin_line_0" d="M -50,-20 L 50,-20" fill="none" stroke="black" stroke-width="5.0"/>
      <path id="serrated_pin_line_1" d="M -50,-30 L 50,-30" fill="none" stroke="black" stroke-width="5.0"/>
      <path id="serrated_pin_line_2" d="M -50,-40 L 50,-40" fill="none" stroke="black" stroke-width="5.0"/>
      <path id="serrated_pin_line_3" d="M -50,-50 L 50,-50" fill="none" stroke="black" stroke-width="5.0"/>
      <path id="serrated_pin_line_4" d="M -50,-60 L 50,-60" fill="none" stroke="black" stroke-width="5.0"/>
      <path id="serrated_pin_line_5" d="M -50,-70 L 50,-70" fill="none" stroke="black" stroke-width="5.0"/>
      <path id="serrated_pin_line_6" d="M -50,-80 L 50,-80" fill="none" stroke="black" stroke-width="5.0"/>
      <path id="serrated_pin_line_7" d="M -50,-90 L 50,-90" fill="none" stroke="black" stroke-width="5.0"/>
      <path id="serrated_pin_line_8" d="M -50,-100 L 50,-100" fill="none" stroke="black" stroke-width="5.0"/>
      <path id="serrated_pin_line_9" d="M -50,-110 L 50,-110" fill="none" stroke="black" stroke-width="5.0"/>
    </g>

    <g id="serrated_pin_7" transform="translate(1050,40)">
      <path id="serrated_pin_base" d="M 0,-3 L 45,-3 Q 50,-3 50,-8 L 50,-122 Q 50,-127 45,-127 L -45,-127 Q -50,-127 -50,-122 L -50, -8 Q -50,-3 -45,-3  L 0,-3" fill="#409020" stroke="black" stroke-width="2.0"/>
      <path id="serrated_pin_line_0" d="M -50,-20 L 50,-20" fill="none" stroke="black" stroke-width="5.0"/>
      <path id="serrated_pin_line_1" d="M -50,-30 L 50,-30" fill="none" stroke="black" stroke-width="5.0"/>
      <path id="serrated_pin_line_2" d="M -50,-40 L 50,-40" fill="none" stroke="black" stroke-width="5.0"/>
      <path id="serrated_pin_line_3" d="M -50,-50 L 50,-50" fill="none" stroke="black" stroke-width="5.0"/>
      <path id="serrated_pin_line_4" d="M -50,-60 L 50,-60" fill="none" stroke="black" stroke-width="5.0"/>
      <path id="serrated_pin_line_5" d="M -50,-70 L 50,-70" fill="none" stroke="black" stroke-width="5.0"/>
      <path id="serrated_pin_line_6" d="M -50,-80 L 50,-80" fill="none" stroke="black" stroke-width="5.0"/>
      <path id="serrated_pin_line_7" d="M -50,-90 L 50,-90" fill="none" stroke="black" stroke-width="5.0"/>
      <path id="serrated_pin_line_8" d="M -50,-100 L 50,-100" fill="none" stroke="black" stroke-width="5.0"/>
      <path id="serrated_pin_line_9" d="M -50,-110 L 50,-110" fill="none" stroke="black" stroke-width="5.0"/>
    </g>

    <g id="serrated_pin_8" transform="translate(1200,30)">
      <path id="serrated_pin_base" d="M 0,-3 L 45,-3 Q 50,-3 50,-8 L 50,-122 Q 50,-127 45,-127 L -45,-127 Q -50,-127 -50,-122 L -50, -8 Q -50,-3 -45,-3  L 0,-3" fill="#409020" stroke="black" stroke-width="2.0"/>
      <path id="serrated_pin_line_0" d="M -50,-20 L 50,-20" fill="none" stroke="black" stroke-width="5.0"/>
      <path id="serrated_pin_line_1" d="M -50,-30 L 50,-30" fill="none" stroke="black" stroke-width="5.0"/>
      <path id="serrated_pin_line_2" d="M -50,-40 L 50,-40" fill="none" stroke="black" stroke-width="5.0"/>
      <path id="serrated_pin_line_3" d="M -50,-50 L 50,-50" fill="none" stroke="black" stroke-width="5.0"/>
      <path id="serrated_pin_line_4" d="M -50,-60 L 50,-60" fill="none" stroke="black" stroke-width="5.0"/>
      <path id="serrated_pin_line_5" d="M -50,-70 L 50,-70" fill="none" stroke="black" stroke-width="5.0"/>
      <path id="serrated_pin_line_6" d="M -50,-80 L 50,-80" fill="none" stroke="black" stroke-width="5.0"/>
      <path id="serrated_pin_line_7" d="M -50,-90 L 50,-90" fill="none" stroke="black" stroke-width="5.0"/>
      <path id="serrated_pin_line_8" d="M -50,-100 L 50,-100" fill="none" stroke="black" stroke-width="5.0"/>
      <path id="serrated_pin_line_9" d="M -50,-110 L 50,-110" fill="none" stroke="black" stroke-width="5.0"/>
    </g>

    <g id="serrated_pin_9" transform="translate(1350,20)">
      <path id="serrated_pin_base" d="M 0,-3 L 45,-3 Q 50,-3 50,-8 L 50,-122 Q 50,-127 45,-127 L -45,-127 Q -50,-127 -50,-122 L -50, -8 Q -50,-3 -45,-3  L 0,-3" fill="#409020" stroke="black" stroke-width="2.0"/>
      <path id="serrated_pin_line_0" d="M -50,-20 L 50,-20" fill="none" stroke="black" stroke-width="5.0"/>
      <path id="serrated_pin_line_1" d="M -50,-30 L 50,-30" fill="none" stroke="black" stroke-width="5.0"/>
      <path id="serrated_pin_line_2" d="M -50,-40 L 50,-40" fill="none" stroke="black" stroke-width="5.0"/>
      <path id="serrated_pin_line_3" d="M -50,-50 L 50,-50" fill="none" stroke="black" stroke-width="5.0"/>
      <path id="serrated_pin_line_4" d="M -50,-60 L 50,-60" fill="none" stroke="black" stroke-width="5.0"/>
      <path id="serrated_pin_line_5" d="M -50,-70 L 50,-70" fill="none" stroke="black" stroke-width="5.0"/>
      <path id="serrated_pin_line_6" d="M -50,-80 L 50,-80" fill="none" stroke="black" stroke-width="5.0"/>
      <path id="serrated_pin_line_7" d="M -50,-90 L 50,-90" fill="none" stroke="black" stroke-width="5.0"/>
      <path id="serrated_pin_line_8" d="M -50,-100 L 50,-100" fill="none" stroke="black" stroke-width="5.0"/>
      <path id="serrated_pin_line_9" d="M -50,-110 L 50,-110" fill="none" stroke="black" stroke-width="5.0"/>
    </g>

    <g id="spring_0" transform="translate(0,180)">
      <path id="spring_b" d="M -50,-200.0  0,-200.0  C  80,-200.0     50,-211.0  0,-211.0  C -80,-211.0    -50,-222.0  0,-222.0  C  80,-222.0
                                50,-233.0  0,-233.0  C -80,-233.0    -50,-244.0  0,-244.0  C  80,-244.0     50,-255.0  0,-255.0  C -80,-255.0
                               -50,-266.0  0,-266.0  C  80,-266.0     50,-277.0  0,-277.0  C -80,-277.0    -50,-288.0  0,-288.0  C  80,-288.0
                                50,-299.0  0,-299.0  C -80,-299.0    -50,-310.0  0,-310.0  C  80,-310.0     50,-321.0  0,-321.0  C -80,-321.0
                               -50,-332.0  0,-332.0  C  80,-332.0     50,-343.0  0,-343.0  C -80,-343.0    -50,-354.0  0,-354.0  C  80,-354.0
                                50,-365.0  0,-365.0  C -80,-365.0    -50,-376.0  0,-376.0  C  80,-376.0     50,-387.0  0,-387.0  C -80,-387.0
                               -50,-398.0  0,-398.0  C  80,-398.0     50,-409.0  0,-409.0  C -80,-409.0    -50,-420.0  0,-420.0  L  50,-420.0"
            fill="none" stroke="black" stroke-width="4.0"/>
    </g>

    <g id="spring_1" transform="translate(150,170)">
      <path id="spring_a" d="M -50,-200.0  0,-200.0  C  80,-200.0     50,-210.5  0,-210.5  C -80,-210.5    -50,-221.0  0,-221.0  C  80,-221.0
                                50,-231.5  0,-231.5  C -80,-231.5    -50,-242.0  0,-242.0  C  80,-242.0     50,-252.5  0,-252.5  C -80,-252.5
                               -50,-263.0  0,-263.0  C  80,-263.0     50,-273.5  0,-273.5  C -80,-273.5    -50,-284.0  0,-284.0  C  80,-284.0
                                50,-294.5  0,-294.5  C -80,-294.5    -50,-305.0  0,-305.0  C  80,-305.0     50,-315.5  0,-315.5  C -80,-315.5
                               -50,-326.0  0,-326.0  C  80,-326.0     50,-336.5  0,-336.5  C -80,-336.5    -50,-347.0  0,-347.0  C  80,-347.0
                                50,-357.6  0,-357.5  C -80,-357.5    -50,-368.0  0,-368.0  C  80,-368.0     50,-378.5  0,-378.5  C -80,-378.5
                               -50,-389.0  0,-389.0  C  80,-389.0     50,-399.5  0,-399.5  C -80,-399.5    -50,-410.0  0,-410.0  L  50,-410.0"
            fill="none" stroke="black" stroke-width="4.0"/>
    </g>

    <g id="spring_2" transform="translate(300,160)">
      <path id="spring_9" d="M -50,-200.0  0,-200.0  C  80,-200.0     50,-210.0  0,-210.0  C -80,-210.0    -50,-220.0  0,-220.0  C  80,-220.0
                                50,-230.0  0,-230.0  C -80,-230.0    -50,-240.0  0,-240.0  C  80,-240.0     50,-250.0  0,-250.0  C -80,-250.0
                               -50,-260.0  0,-260.0  C  80,-260.0     50,-270.0  0,-270.0  C -80,-270.0    -50,-280.0  0,-280.0  C  80,-280.0
                                50,-290.0  0,-290.0  C -80,-290.0    -50,-300.0  0,-300.0  C  80,-300.0     50,-310.0  0,-310.0  C -80,-310.0
                               -50,-320.0  0,-320.0  C  80,-320.0     50,-330.0  0,-330.0  C -80,-330.0    -50,-340.0  0,-340.0  C  80,-340.0
                                50,-350.0  0,-350.0  C -80,-350.0    -50,-360.0  0,-360.0  C  80,-360.0     50,-370.0  0,-370.0  C -80,-370.0
                               -50,-380.0  0,-380.0  C  80,-380.0     50,-390.0  0,-390.0  C -80,-390.0    -50,-400.0  0,-400.0  L  50,-400.0"
            fill="none" stroke="black" stroke-width="4.0"/>
    </g>

    <g id="spring_3" transform="translate(450,150)">
      <path id="spring_8" d="M -50,-200.0  0,-200.0  C  80,-200.0     50,-209.5  0,-209.5  C -80,-209.5    -50,-219.0  0,-219.0  C  80,-219.0
                                50,-228.5  0,-228.5  C -80,-228.5    -50,-238.0  0,-238.0  C  80,-238.0     50,-247.5  0,-247.5  C -80,-247.5
                               -50,-257.0  0,-257.0  C  80,-257.0     50,-266.5  0,-266.5  C -80,-266.5    -50,-276.0  0,-276.0  C  80,-276.0
                                50,-285.5  0,-285.5  C -80,-285.5    -50,-295.0  0,-295.0  C  80,-295.0     50,-304.5  0,-304.5  C -80,-304.5
                               -50,-314.0  0,-314.0  C  80,-314.0     50,-323.5  0,-323.5  C -80,-323.5    -50,-333.0  0,-333.0  C  80,-333.0
                                50,-342.5  0,-342.5  C -80,-342.5    -50,-352.0  0,-352.0  C  80,-352.0     50,-361.5  0,-361.5  C -80,-361.5
                               -50,-371.0  0,-371.0  C  80,-371.0     50,-380.5  0,-380.5  C -80,-380.5    -50,-390.0  0,-390.0  L  50,-390.0"
            fill="none" stroke="black" stroke-width="4.0"/>
    </g>

    <g id="spring_4" transform="translate(600,140)">
      <path id="spring_7" d="M -50,-200.0  0,-200.0  C  80,-200.0     50,-209.0  0,-209.0  C -80,-209.0    -50,-218.0  0,-218.0  C  80,-218.0
                                50,-227.0  0,-227.0  C -80,-227.0    -50,-236.0  0,-236.0  C  80,-236.0     50,-245.0  0,-245.0  C -80,-245.0
                               -50,-254.0  0,-254.0  C  80,-254.0     50,-263.0  0,-263.0  C -80,-263.0    -50,-272.0  0,-272.0  C  80,-272.0
                                50,-281.0  0,-281.0  C -80,-281.0    -50,-290.0  0,-290.0  C  80,-290.0     50,-299.0  0,-299.0  C -80,-299.0
                               -50,-308.0  0,-308.0  C  80,-308.0     50,-317.0  0,-317.0  C -80,-317.0    -50,-326.0  0,-326.0  C  80,-326.0
                                50,-335.0  0,-335.0  C -80,-335.0    -50,-344.0  0,-344.0  C  80,-344.0     50,-353.0  0,-353.0  C -80,-353.0
                               -50,-362.0  0,-362.0  C  80,-362.0     50,-371.0  0,-371.0  C -80,-371.0    -50,-380.0  0,-380.0  L  50,-380.0"
            fill="none" stroke="black" stroke-width="4.0"/>
    </g>

    <g id="spring_5" transform="translate(750,130)">
      <path id="spring_6" d="M -50,-200.0  0,-200.0  C  80,-200.0     50,-208.5  0,-208.5  C -80,-208.5    -50,-217.0  0,-217.0  C  80,-217.0
                                50,-225.5  0,-225.5  C -80,-225.5    -50,-234.0  0,-234.0  C  80,-234.0     50,-242.5  0,-242.5  C -80,-242.5
                               -50,-251.0  0,-251.0  C  80,-251.0     50,-259.5  0,-259.5  C -80,-259.5    -50,-268.0  0,-268.0  C  80,-268.0
                                50,-276.5  0,-276.5  C -80,-276.5    -50,-285.0  0,-285.0  C  80,-285.0     50,-293.5  0,-293.5  C -80,-293.5
                               -50,-302.0  0,-302.0  C  80,-302.0     50,-310.5  0,-310.5  C -80,-310.5    -50,-319.0  0,-319.0  C  80,-319.0
                                50,-327.5  0,-327.5  C -80,-327.5    -50,-336.0  0,-336.0  C  80,-336.0     50,-344.5  0,-344.5  C -80,-344.5
                               -50,-353.0  0,-353.0  C  80,-353.0     50,-361.5  0,-361.5  C -80,-361.5    -50,-370.0  0,-370.0  L  50,-370.0"
            fill="none" stroke="black" stroke-width="4.0"/>
    </g>

    <g id="spring_6" transform="translate(900,120)">
      <path id="spring_5" d="M -50,-200.0  0,-200.0  C  80,-200.0     50,-208.0  0,-208.0  C -80,-208.0    -50,-216.0  0,-216.0  C  80,-216.0
                                50,-224.0  0,-224.0  C -80,-224.0    -50,-232.0  0,-232.0  C  80,-232.0     50,-240.0  0,-240.0  C -80,-240.0
                               -50,-248.0  0,-248.0  C  80,-248.0     50,-256.0  0,-256.0  C -80,-256.0    -50,-264.0  0,-264.0  C  80,-264.0
                                50,-272.0  0,-272.0  C -80,-272.0    -50,-280.0  0,-280.0  C  80,-280.0     50,-288.0  0,-288.0  C -80,-288.0
                               -50,-296.0  0,-296.0  C  80,-296.0     50,-304.0  0,-304.0  C -80,-304.0    -50,-312.0  0,-312.0  C  80,-312.0
                                50,-320.0  0,-320.0  C -80,-320.0    -50,-328.0  0,-328.0  C  80,-328.0     50,-336.0  0,-336.0  C -80,-336.0
                               -50,-344.0  0,-344.0  C  80,-344.0     50,-352.0  0,-352.0  C -80,-352.0    -50,-360.0  0,-360.0  L  50,-360.0"
            fill="none" stroke="black" stroke-width="4.0"/>
    </g>

    <g id="spring_7" transform="translate(1050,110)">
      <path id="spring_4" d="M -50,-200.0  0,-200.0  C  80,-200.0     50,-207.5  0,-207.5  C -80,-207.5    -50,-215.0  0,-215.0  C  80,-215.0
                                50,-222.5  0,-222.5  C -80,-222.5    -50,-230.0  0,-230.0  C  80,-230.0     50,-237.5  0,-237.5  C -80,-237.5
                               -50,-245.0  0,-245.0  C  80,-245.0     50,-252.5  0,-252.5  C -80,-252.5    -50,-260.0  0,-260.0  C  80,-260.0
                                50,-267.5  0,-267.5  C -80,-267.5    -50,-275.0  0,-275.0  C  80,-275.0     50,-282.5  0,-282.5  C -80,-282.5
                               -50,-290.0  0,-290.0  C  80,-290.0     50,-297.5  0,-297.5  C -80,-297.5    -50,-305.0  0,-305.0  C  80,-305.0
                                50,-312.5  0,-312.5  C -80,-312.5    -50,-320.0  0,-320.0  C  80,-320.0     50,-327.5  0,-327.5  C -80,-327.5
                               -50,-335.0  0,-335.0  C  80,-335.0     50,-342.5  0,-342.5  C -80,-342.5    -50,-350.0  0,-350.0  L  50,-350.0"
            fill="none" stroke="black" stroke-width="4.0"/>
    </g>

    <g id="spring_8" transform="translate(1200,100)">
      <path id="spring_3" d="M -50,-200.0  0,-200.0  C  80,-200.0     50,-207.0  0,-207.0  C -80,-207.0    -50,-214.0  0,-214.0  C  80,-214.0
                                50,-221.0  0,-221.0  C -80,-221.0    -50,-228.0  0,-228.0  C  80,-228.0     50,-235.0  0,-235.0  C -80,-235.0
                               -50,-242.0  0,-242.0  C  80,-242.0     50,-249.0  0,-249.0  C -80,-249.0    -50,-256.0  0,-256.0  C  80,-256.0
                                50,-263.0  0,-263.0  C -80,-263.0    -50,-270.0  0,-270.0  C  80,-270.0     50,-277.0  0,-277.0  C -80,-277.0
                               -50,-284.0  0,-284.0  C  80,-284.0     50,-291.0  0,-291.0  C -80,-291.0    -50,-298.0  0,-298.0  C  80,-298.0
                                50,-305.0  0,-305.0  C -80,-305.0    -50,-312.0  0,-312.0  C  80,-312.0     50,-319.0  0,-319.0  C -80,-319.0
                               -50,-326.0  0,-326.0  C  80,-326.0     50,-333.0  0,-333.0  C -80,-333.0    -50,-340.0  0,-340.0  L  50,-340.0"
            fill="none" stroke="black" stroke-width="4.0"/>
    </g>

    <g id="spring_9" transform="translate(1350,90)">
      <path id="spring_2" d="M -50,-200.0  0,-200.0  C  80,-200.0     50,-206.5  0,-206.5  C -80,-206.5    -50,-213.0  0,-213.0  C  80,-213.0
                                50,-219.5  0,-219.5  C -80,-219.5    -50,-226.0  0,-226.0  C  80,-226.0     50,-232.5  0,-232.5  C -80,-232.5
                               -50,-239.0  0,-239.0  C  80,-239.0     50,-245.5  0,-245.5  C -80,-245.5    -50,-252.0  0,-252.0  C  80,-252.0
                                50,-258.5  0,-258.5  C -80,-258.5    -50,-265.0  0,-265.0  C  80,-265.0     50,-271.5  0,-271.5  C -80,-271.5
                               -50,-278.0  0,-278.0  C  80,-278.0     50,-284.5  0,-284.5  C -80,-284.5    -50,-291.0  0,-291.0  C  80,-291.0
                                50,-297.5  0,-297.5  C -80,-297.5    -50,-304.0  0,-304.0  C  80,-304.0     50,-310.5  0,-310.5  C -80,-310.5
                               -50,-317.0  0,-317.0  C  80,-317.0     50,-323.5  0,-323.5  C -80,-323.5    -50,-330.0  0,-330.0  L  50,-330.0"
            fill="none" stroke="black" stroke-width="4.0"/>
    </g>

  </g>


<!-- ====================================================================== -->
  <!-- Example of all pins with tops lined up (key inserted) -->
  <g id="example2"  transform="translate(200,1000)">

    <line x1="-100" y1="-310" x2="1450" y2="-310" fill="none" stroke="black" stroke-width="5.0"/>
    <line x1="-100" y1="0" x2="1450" y2="0" fill="none" stroke="black" stroke-width="5.0"/>

    <g id="key_pin_0a" transform="translate(0,0)">
      <path id="key_pin_0_shape" d="M 0,0 L 45,0 Q 50,0 50,5 L 50, 95 Q 50,100 45,105 L 5,145 Q 0,150 -5,145 L -45,105 Q -50,100 -50, 95  L -50,5 Q -50,0 -45,0 L 0,0" fill="#ff00f0" stroke="black" stroke-width="2.0"/>
      <text x="0" y="100" text-anchor="middle" font-size="80">0</text>
    </g>

    <g id="key_pin_1a" transform="translate(150,0)">
      <path id="key_pin_1_shape" d="M 0,0 L 45,0 Q 50,0 50,5 L 50,105 Q 50,110 45,115 L 5,155 Q 0,160 -5,155 L -45,115 Q -50,110 -50,105  L -50,5 Q -50,0 -45,0 L 0,0" fill="#ff10e0" stroke="black" stroke-width="2.0"/>
      <text x="0" y="100" text-anchor="middle" font-size="80">1</text>
    </g>

    <g id="key_pin_2a" transform="translate(300,0)">
      <path id="key_pin_2_shape" d="M 0,0 L 45,0 Q 50,0 50,5 L 50,115 Q 50,120 45,125 L 5,165 Q 0,170 -5,165 L -45,125 Q -50,120 -50,115  L -50,5 Q -50,0 -45,0 L 0,0" fill="#ff20d0" stroke="black" stroke-width="2.0"/>
      <text x="0" y="100" text-anchor="middle" font-size="80">2</text>
    </g>

    <g id="key_pin_3a" transform="translate(450,0)">
      <path id="key_pin_3_shape" d="M 0,0 L 45,0 Q 50,0 50,5 L 50,125 Q 50,130 45,135 L 5,175 Q 0,180 -5,175 L -45,135 Q -50,130 -50,125  L -50,5 Q -50,0 -45,0 L 0,0" fill="#ff30c0" stroke="black" stroke-width="2.0"/>
      <text x="0" y="100" text-anchor="middle" font-size="80">3</text>
    </g>

    <g id="key_pin_4a" transform="translate(600,0)">
      <path id="key_pin_4_shape" d="M 0,0 L 45,0 Q 50,0 50,5 L 50,135 Q 50,140 45,145 L 5,185 Q 0,190 -5,185 L -45,145 Q -50,140 -50,135  L -50,5 Q -50,0 -45,0 L 0,0" fill="#ff40b0" stroke="black" stroke-width="2.0"/>
      <text x="0" y="100" text-anchor="middle" font-size="80">4</text>
    </g>

    <g id="key_pin_5a" transform="translate(750,0)">
      <path id="key_pin_5_shape" d="M 0,0 L 45,0 Q 50,0 50,5 L 50,145 Q 50,150 45,155 L 5,195 Q 0,200 -5,195 L -45,155 Q -50,150 -50,145  L -50,5 Q -50,0 -45,0 L 0,0" fill="#ff50a0" stroke="black" stroke-width="2.0"/>
      <text x="0" y="100" text-anchor="middle" font-size="80">5</text>
    </g>

    <g id="key_pin_6a" transform="translate(900,0)">
      <path id="key_pin_6_shape" d="M 0,0 L 45,0 Q 50,0 50,5 L 50,155 Q 50,160 45,165 L 5,205 Q 0,210 -5,205 L -45,165 Q -50,160 -50,155  L -50,5 Q -50,0 -45,0 L 0,0" fill="#ff6090" stroke="black" stroke-width="2.0"/>
      <text x="0" y="100" text-anchor="middle" font-size="80">6</text>
    </g>

    <g id="key_pin_7a" transform="translate(1050,0)">
      <path id="key_pin_7_shape" d="M 0,0 L 45,0 Q 50,0 50,5 L 50,165 Q 50,170 45,175 L 5,215 Q 0,220 -5,215 L -45,175 Q -50,170 -50,165  L -50,5 Q -50,0 -45,0 L 0,0" fill="#ff7080" stroke="black" stroke-width="2.0"/>
      <text x="0" y="100" text-anchor="middle" font-size="80">7</text>
    </g>

    <g id="key_pin_8a" transform="translate(1200,0)">
      <path id="key_pin_8_shape" d="M 0,0 L 45,0 Q 50,0 50,5 L 50,175 Q 50,180 45,185 L 5,225 Q 0,230 -5,225 L -45,185 Q -50,180 -50,175  L -50,5 Q -50,0 -45,0 L 0,0" fill="#ff8070" stroke="black" stroke-width="2.0"/>
      <text x="0" y="100" text-anchor="middle" font-size="80">8</text>
    </g>

    <g id="key_pin_9a" transform="translate(1350,0)">
      <path id="key_pin_9_shape" d="M 0,0 L 45,0 Q 50,0 50,5 L 50,185 Q 50,190 45,195 L 5,235 Q 0,240 -5,235 L -45,195 Q -50,190 -50,185  L -50,5 Q -50,0 -45,0 L 0,0" fill="#ff9060" stroke="black" stroke-width="2.0"/>
      <text x="0" y="100" text-anchor="middle" font-size="80">9</text>
    </g>

    <path id="basic_pin_0" transform="translate(  0,0)" d="M 0,-3 L 45,-3 Q 50,-3 50,-8 L 50,-192 Q 50,-197 45,-197 L -45,-197 Q -50,-197 -50,-192 L -50, -8 Q -50,-3 -45,-3  L 0,-3" fill="#ffd020" stroke="black" stroke-width="2.0"/>
    <path id="basic_pin_1" transform="translate(150,0)" d="M 0,-3 L 45,-3 Q 50,-3 50,-8 L 50,-192 Q 50,-197 45,-197 L -45,-197 Q -50,-197 -50,-192 L -50, -8 Q -50,-3 -45,-3  L 0,-3" fill="#ffd020" stroke="black" stroke-width="2.0"/>
    <path id="basic_pin_2" transform="translate(300,0)" d="M 0,-3 L 45,-3 Q 50,-3 50,-8 L 50,-192 Q 50,-197 45,-197 L -45,-197 Q -50,-197 -50,-192 L -50, -8 Q -50,-3 -45,-3  L 0,-3" fill="#ffd020" stroke="black" stroke-width="2.0"/>
    <path id="basic_pin_3" transform="translate(450,0)" d="M 0,-3 L 45,-3 Q 50,-3 50,-8 L 50,-192 Q 50,-197 45,-197 L -45,-197 Q -50,-197 -50,-192 L -50, -8 Q -50,-3 -45,-3  L 0,-3" fill="#ffd020" stroke="black" stroke-width="2.0"/>
    <path id="basic_pin_4" transform="translate(600,0)" d="M 0,-3 L 45,-3 Q 50,-3 50,-8 L 50,-192 Q 50,-197 45,-197 L -45,-197 Q -50,-197 -50,-192 L -50, -8 Q -50,-3 -45,-3  L 0,-3" fill="#ffd020" stroke="black" stroke-width="2.0"/>
    <path id="basic_pin_5" transform="translate(750,0)" d="M 0,-3 L 45,-3 Q 50,-3 50,-8 L 50,-192 Q 50,-197 45,-197 L -45,-197 Q -50,-197 -50,-192 L -50, -8 Q -50,-3 -45,-3  L 0,-3" fill="#ffd020" stroke="black" stroke-width="2.0"/>
    <path id="basic_pin_6" transform="translate(900,0)" d="M 0,-3 L 45,-3 Q 50,-3 50,-8 L 50,-192 Q 50,-197 45,-197 L -45,-197 Q -50,-197 -50,-192 L -50, -8 Q -50,-3 -45,-3  L 0,-3" fill="#ffd020" stroke="black" stroke-width="2.0"/>
    <path id="basic_pin_7" transform="translate(1050,0)" d="M 0,-3 L 45,-3 Q 50,-3 50,-8 L 50,-192 Q 50,-197 45,-197 L -45,-197 Q -50,-197 -50,-192 L -50, -8 Q -50,-3 -45,-3  L 0,-3" fill="#ffd020" stroke="black" stroke-width="2.0"/>
    <path id="basic_pin_8" transform="translate(1200,0)" d="M 0,-3 L 45,-3 Q 50,-3 50,-8 L 50,-192 Q 50,-197 45,-197 L -45,-197 Q -50,-197 -50,-192 L -50, -8 Q -50,-3 -45,-3  L 0,-3" fill="#ffd020" stroke="black" stroke-width="2.0"/>
    <path id="basic_pin_9" transform="translate(1350,0)" d="M 0,-3 L 45,-3 Q 50,-3 50,-8 L 50,-192 Q 50,-197 45,-197 L -45,-197 Q -50,-197 -50,-192 L -50, -8 Q -50,-3 -45,-3  L 0,-3" fill="#ffd020" stroke="black" stroke-width="2.0"/>


    <g id="spring_0" transform="translate(0,0)">
      <path id="spring_0"  d="M -50,-200.0  0,-200.0  C  80,-200.0     50,-205.5  0,-205.5  C -80,-205.5    -50,-211.0  0,-211.0  C  80,-211.0
                                 50,-216.5  0,-216.5  C -80,-216.5    -50,-222.0  0,-222.0  C  80,-222.0     50,-227.5  0,-227.5  C -80,-227.5
                                -50,-233.0  0,-233.0  C  80,-233.0     50,-238.5  0,-238.5  C -80,-238.5    -50,-244.0  0,-244.0  C  80,-244.0
                                 50,-249.5  0,-249.5  C -80,-249.5    -50,-255.0  0,-255.0  C  80,-255.0     50,-260.5  0,-260.5  C -80,-260.5
                                -50,-266.0  0,-266.0  C  80,-266.0     50,-271.5  0,-271.5  C -80,-271.5    -50,-277.0  0,-277.0  C  80,-277.0
                                 50,-282.5  0,-282.5  C -80,-282.5    -50,-288.0  0,-288.0  C  80,-288.0     50,-293.5  0,-293.5  C -80,-293.5
                                -50,-299.0  0,-299.0  C  80,-299.0     50,-304.5  0,-304.5  C -80,-304.5    -50,-310.0  0,-310.0  L  50,-310.0"
            fill="none" stroke="black" stroke-width="4.0"/>
    </g>

    <g id="spring_1" transform="translate(150,0)">
      <path id="spring_0"  d="M -50,-200.0  0,-200.0  C  80,-200.0     50,-205.5  0,-205.5  C -80,-205.5    -50,-211.0  0,-211.0  C  80,-211.0
                                 50,-216.5  0,-216.5  C -80,-216.5    -50,-222.0  0,-222.0  C  80,-222.0     50,-227.5  0,-227.5  C -80,-227.5
                                -50,-233.0  0,-233.0  C  80,-233.0     50,-238.5  0,-238.5  C -80,-238.5    -50,-244.0  0,-244.0  C  80,-244.0
                                 50,-249.5  0,-249.5  C -80,-249.5    -50,-255.0  0,-255.0  C  80,-255.0     50,-260.5  0,-260.5  C -80,-260.5
                                -50,-266.0  0,-266.0  C  80,-266.0     50,-271.5  0,-271.5  C -80,-271.5    -50,-277.0  0,-277.0  C  80,-277.0
                                 50,-282.5  0,-282.5  C -80,-282.5    -50,-288.0  0,-288.0  C  80,-288.0     50,-293.5  0,-293.5  C -80,-293.5
                                -50,-299.0  0,-299.0  C  80,-299.0     50,-304.5  0,-304.5  C -80,-304.5    -50,-310.0  0,-310.0  L  50,-310.0"
            fill="none" stroke="black" stroke-width="4.0"/>
    </g>

    <g id="spring_2" transform="translate(300,0)">
      <path id="spring_0"  d="M -50,-200.0  0,-200.0  C  80,-200.0     50,-205.5  0,-205.5  C -80,-205.5    -50,-211.0  0,-211.0  C  80,-211.0
                                 50,-216.5  0,-216.5  C -80,-216.5    -50,-222.0  0,-222.0  C  80,-222.0     50,-227.5  0,-227.5  C -80,-227.5
                                -50,-233.0  0,-233.0  C  80,-233.0     50,-238.5  0,-238.5  C -80,-238.5    -50,-244.0  0,-244.0  C  80,-244.0
                                 50,-249.5  0,-249.5  C -80,-249.5    -50,-255.0  0,-255.0  C  80,-255.0     50,-260.5  0,-260.5  C -80,-260.5
                                -50,-266.0  0,-266.0  C  80,-266.0     50,-271.5  0,-271.5  C -80,-271.5    -50,-277.0  0,-277.0  C  80,-277.0
                                 50,-282.5  0,-282.5  C -80,-282.5    -50,-288.0  0,-288.0  C  80,-288.0     50,-293.5  0,-293.5  C -80,-293.5
                                -50,-299.0  0,-299.0  C  80,-299.0     50,-304.5  0,-304.5  C -80,-304.5    -50,-310.0  0,-310.0  L  50,-310.0"
            fill="none" stroke="black" stroke-width="4.0"/>
    </g>

    <g id="spring_3" transform="translate(450,0)">
      <path id="spring_0"  d="M -50,-200.0  0,-200.0  C  80,-200.0     50,-205.5  0,-205.5  C -80,-205.5    -50,-211.0  0,-211.0  C  80,-211.0
                                 50,-216.5  0,-216.5  C -80,-216.5    -50,-222.0  0,-222.0  C  80,-222.0     50,-227.5  0,-227.5  C -80,-227.5
                                -50,-233.0  0,-233.0  C  80,-233.0     50,-238.5  0,-238.5  C -80,-238.5    -50,-244.0  0,-244.0  C  80,-244.0
                                 50,-249.5  0,-249.5  C -80,-249.5    -50,-255.0  0,-255.0  C  80,-255.0     50,-260.5  0,-260.5  C -80,-260.5
                                -50,-266.0  0,-266.0  C  80,-266.0     50,-271.5  0,-271.5  C -80,-271.5    -50,-277.0  0,-277.0  C  80,-277.0
                                 50,-282.5  0,-282.5  C -80,-282.5    -50,-288.0  0,-288.0  C  80,-288.0     50,-293.5  0,-293.5  C -80,-293.5
                                -50,-299.0  0,-299.0  C  80,-299.0     50,-304.5  0,-304.5  C -80,-304.5    -50,-310.0  0,-310.0  L  50,-310.0"
            fill="none" stroke="black" stroke-width="4.0"/>
    </g>

    <g id="spring_4" transform="translate(600,0)">
      <path id="spring_0"  d="M -50,-200.0  0,-200.0  C  80,-200.0     50,-205.5  0,-205.5  C -80,-205.5    -50,-211.0  0,-211.0  C  80,-211.0
                                 50,-216.5  0,-216.5  C -80,-216.5    -50,-222.0  0,-222.0  C  80,-222.0     50,-227.5  0,-227.5  C -80,-227.5
                                -50,-233.0  0,-233.0  C  80,-233.0     50,-238.5  0,-238.5  C -80,-238.5    -50,-244.0  0,-244.0  C  80,-244.0
                                 50,-249.5  0,-249.5  C -80,-249.5    -50,-255.0  0,-255.0  C  80,-255.0     50,-260.5  0,-260.5  C -80,-260.5
                                -50,-266.0  0,-266.0  C  80,-266.0     50,-271.5  0,-271.5  C -80,-271.5    -50,-277.0  0,-277.0  C  80,-277.0
                                 50,-282.5  0,-282.5  C -80,-282.5    -50,-288.0  0,-288.0  C  80,-288.0     50,-293.5  0,-293.5  C -80,-293.5
                                -50,-299.0  0,-299.0  C  80,-299.0     50,-304.5  0,-304.5  C -80,-304.5    -50,-310.0  0,-310.0  L  50,-310.0"
            fill="none" stroke="black" stroke-width="4.0"/>
    </g>

    <g id="spring_5" transform="translate(750,0)">
      <path id="spring_0"  d="M -50,-200.0  0,-200.0  C  80,-200.0     50,-205.5  0,-205.5  C -80,-205.5    -50,-211.0  0,-211.0  C  80,-211.0
                                 50,-216.5  0,-216.5  C -80,-216.5    -50,-222.0  0,-222.0  C  80,-222.0     50,-227.5  0,-227.5  C -80,-227.5
                                -50,-233.0  0,-233.0  C  80,-233.0     50,-238.5  0,-238.5  C -80,-238.5    -50,-244.0  0,-244.0  C  80,-244.0
                                 50,-249.5  0,-249.5  C -80,-249.5    -50,-255.0  0,-255.0  C  80,-255.0     50,-260.5  0,-260.5  C -80,-260.5
                                -50,-266.0  0,-266.0  C  80,-266.0     50,-271.5  0,-271.5  C -80,-271.5    -50,-277.0  0,-277.0  C  80,-277.0
                                 50,-282.5  0,-282.5  C -80,-282.5    -50,-288.0  0,-288.0  C  80,-288.0     50,-293.5  0,-293.5  C -80,-293.5
                                -50,-299.0  0,-299.0  C  80,-299.0     50,-304.5  0,-304.5  C -80,-304.5    -50,-310.0  0,-310.0  L  50,-310.0"
            fill="none" stroke="black" stroke-width="4.0"/>
    </g>

    <g id="spring_6" transform="translate(900,0)">
      <path id="spring_0"  d="M -50,-200.0  0,-200.0  C  80,-200.0     50,-205.5  0,-205.5  C -80,-205.5    -50,-211.0  0,-211.0  C  80,-211.0
                                 50,-216.5  0,-216.5  C -80,-216.5    -50,-222.0  0,-222.0  C  80,-222.0     50,-227.5  0,-227.5  C -80,-227.5
                                -50,-233.0  0,-233.0  C  80,-233.0     50,-238.5  0,-238.5  C -80,-238.5    -50,-244.0  0,-244.0  C  80,-244.0
                                 50,-249.5  0,-249.5  C -80,-249.5    -50,-255.0  0,-255.0  C  80,-255.0     50,-260.5  0,-260.5  C -80,-260.5
                                -50,-266.0  0,-266.0  C  80,-266.0     50,-271.5  0,-271.5  C -80,-271.5    -50,-277.0  0,-277.0  C  80,-277.0
                                 50,-282.5  0,-282.5  C -80,-282.5    -50,-288.0  0,-288.0  C  80,-288.0     50,-293.5  0,-293.5  C -80,-293.5
                                -50,-299.0  0,-299.0  C  80,-299.0     50,-304.5  0,-304.5  C -80,-304.5    -50,-310.0  0,-310.0  L  50,-310.0"
            fill="none" stroke="black" stroke-width="4.0"/>
    </g>

    <g id="spring_7" transform="translate(1050,0)">
      <path id="spring_0"  d="M -50,-200.0  0,-200.0  C  80,-200.0     50,-205.5  0,-205.5  C -80,-205.5    -50,-211.0  0,-211.0  C  80,-211.0
                                 50,-216.5  0,-216.5  C -80,-216.5    -50,-222.0  0,-222.0  C  80,-222.0     50,-227.5  0,-227.5  C -80,-227.5
                                -50,-233.0  0,-233.0  C  80,-233.0     50,-238.5  0,-238.5  C -80,-238.5    -50,-244.0  0,-244.0  C  80,-244.0
                                 50,-249.5  0,-249.5  C -80,-249.5    -50,-255.0  0,-255.0  C  80,-255.0     50,-260.5  0,-260.5  C -80,-260.5
                                -50,-266.0  0,-266.0  C  80,-266.0     50,-271.5  0,-271.5  C -80,-271.5    -50,-277.0  0,-277.0  C  80,-277.0
                                 50,-282.5  0,-282.5  C -80,-282.5    -50,-288.0  0,-288.0  C  80,-288.0     50,-293.5  0,-293.5  C -80,-293.5
                                -50,-299.0  0,-299.0  C  80,-299.0     50,-304.5  0,-304.5  C -80,-304.5    -50,-310.0  0,-310.0  L  50,-310.0"
            fill="none" stroke="black" stroke-width="4.0"/>
    </g>

    <g id="spring_8" transform="translate(1200,0)">
      <path id="spring_0"  d="M -50,-200.0  0,-200.0  C  80,-200.0     50,-205.5  0,-205.5  C -80,-205.5    -50,-211.0  0,-211.0  C  80,-211.0
                                 50,-216.5  0,-216.5  C -80,-216.5    -50,-222.0  0,-222.0  C  80,-222.0     50,-227.5  0,-227.5  C -80,-227.5
                                -50,-233.0  0,-233.0  C  80,-233.0     50,-238.5  0,-238.5  C -80,-238.5    -50,-244.0  0,-244.0  C  80,-244.0
                                 50,-249.5  0,-249.5  C -80,-249.5    -50,-255.0  0,-255.0  C  80,-255.0     50,-260.5  0,-260.5  C -80,-260.5
                                -50,-266.0  0,-266.0  C  80,-266.0     50,-271.5  0,-271.5  C -80,-271.5    -50,-277.0  0,-277.0  C  80,-277.0
                                 50,-282.5  0,-282.5  C -80,-282.5    -50,-288.0  0,-288.0  C  80,-288.0     50,-293.5  0,-293.5  C -80,-293.5
                                -50,-299.0  0,-299.0  C  80,-299.0     50,-304.5  0,-304.5  C -80,-304.5    -50,-310.0  0,-310.0  L  50,-310.0"
            fill="none" stroke="black" stroke-width="4.0"/>
    </g>

    <g id="spring_9" transform="translate(1350,0)">
      <path id="spring_0"  d="M -50,-200.0  0,-200.0  C  80,-200.0     50,-205.5  0,-205.5  C -80,-205.5    -50,-211.0  0,-211.0  C  80,-211.0
                                 50,-216.5  0,-216.5  C -80,-216.5    -50,-222.0  0,-222.0  C  80,-222.0     50,-227.5  0,-227.5  C -80,-227.5
                                -50,-233.0  0,-233.0  C  80,-233.0     50,-238.5  0,-238.5  C -80,-238.5    -50,-244.0  0,-244.0  C  80,-244.0
                                 50,-249.5  0,-249.5  C -80,-249.5    -50,-255.0  0,-255.0  C  80,-255.0     50,-260.5  0,-260.5  C -80,-260.5
                                -50,-266.0  0,-266.0  C  80,-266.0     50,-271.5  0,-271.5  C -80,-271.5    -50,-277.0  0,-277.0  C  80,-277.0
                                 50,-282.5  0,-282.5  C -80,-282.5    -50,-288.0  0,-288.0  C  80,-288.0     50,-293.5  0,-293.5  C -80,-293.5
                                -50,-299.0  0,-299.0  C  80,-299.0     50,-304.5  0,-304.5  C -80,-304.5    -50,-310.0  0,-310.0  L  50,-310.0"
            fill="none" stroke="black" stroke-width="4.0"/>
    </g>

  </g>


<!-- ====================================================================== -->
  <g id="example3"  transform="translate(200,1500)">


  </g>


<!-- ====================================================================== -->
  <g id="example4"  transform="translate(200,2300)">

  </g>


</svg>
